<svg width="18" height="18" viewBox="0 0 18 18" fill="none" xmlns="http://www.w3.org/2000/svg">
<g clip-path="url(#clip0_3342_10083)">
<path d="M2.70039 1.8C1.70758 1.8 0.900391 2.60719 0.900391 3.6V14.4C0.900391 15.3928 1.70758 16.2 2.70039 16.2H9.71195C9.5432 15.7838 9.45039 15.3281 9.45039 14.85C9.45039 14.3522 9.65289 13.9022 9.97914 13.5759C9.64445 13.0303 9.45039 12.3863 9.45039 11.7C9.45039 11.2022 9.65289 10.7522 9.97914 10.4259C9.64445 9.88032 9.45039 9.23625 9.45039 8.55C9.45039 7.84125 9.8582 7.23094 10.4516 6.93563C10.3841 6.73594 10.3504 6.52219 10.3504 6.3V5.4C10.3504 4.51969 10.9129 3.77157 11.6976 3.49032C11.6413 2.54813 10.8566 1.8 9.90039 1.8H2.70039ZM5.85039 11.7H6.75039C7.2482 11.7 7.65039 12.1022 7.65039 12.6V14.85H4.95039V12.6C4.95039 12.1022 5.35258 11.7 5.85039 11.7ZM3.60039 4.95C3.60039 4.7025 3.80289 4.5 4.05039 4.5H4.95039C5.19789 4.5 5.40039 4.7025 5.40039 4.95V5.85C5.40039 6.0975 5.19789 6.3 4.95039 6.3H4.05039C3.80289 6.3 3.60039 6.0975 3.60039 5.85V4.95ZM7.65039 4.5H8.55039C8.79789 4.5 9.00039 4.7025 9.00039 4.95V5.85C9.00039 6.0975 8.79789 6.3 8.55039 6.3H7.65039C7.40289 6.3 7.20039 6.0975 7.20039 5.85V4.95C7.20039 4.7025 7.40289 4.5 7.65039 4.5ZM3.60039 8.55C3.60039 8.3025 3.80289 8.1 4.05039 8.1H4.95039C5.19789 8.1 5.40039 8.3025 5.40039 8.55V9.45C5.40039 9.6975 5.19789 9.9 4.95039 9.9H4.05039C3.80289 9.9 3.60039 9.6975 3.60039 9.45V8.55ZM7.65039 8.1H8.55039C8.79789 8.1 9.00039 8.3025 9.00039 8.55V9.45C9.00039 9.6975 8.79789 9.9 8.55039 9.9H7.65039C7.40289 9.9 7.20039 9.6975 7.20039 9.45V8.55C7.20039 8.3025 7.40289 8.1 7.65039 8.1ZM17.5504 8.1H17.1004C15.8573 8.1 14.8504 9.10688 14.8504 10.35C14.8504 10.5975 15.0529 10.8 15.3004 10.8H15.7504C16.9935 10.8 18.0004 9.79313 18.0004 8.55C18.0004 8.3025 17.7979 8.1 17.5504 8.1ZM18.0004 11.7C18.0004 11.4525 17.7979 11.25 17.5504 11.25H17.1004C15.8573 11.25 14.8504 12.2569 14.8504 13.5C14.8504 13.7475 15.0529 13.95 15.3004 13.95H15.7504C16.9935 13.95 18.0004 12.9431 18.0004 11.7ZM18.0004 14.85C18.0004 14.6025 17.7979 14.4 17.5504 14.4H17.1004C15.8573 14.4 14.8504 15.4069 14.8504 16.65C14.8504 16.8975 15.0529 17.1 15.3004 17.1H15.7504C16.9935 17.1 18.0004 16.0931 18.0004 14.85ZM13.9504 16.65C13.9504 15.4069 12.9435 14.4 11.7004 14.4H11.2504C11.0029 14.4 10.8004 14.6025 10.8004 14.85C10.8004 16.0931 11.8073 17.1 13.0504 17.1H13.5004C13.7479 17.1 13.9504 16.8975 13.9504 16.65ZM13.5004 13.95C13.7479 13.95 13.9504 13.7475 13.9504 13.5C13.9504 12.2569 12.9435 11.25 11.7004 11.25H11.2504C11.0029 11.25 10.8004 11.4525 10.8004 11.7C10.8004 12.9431 11.8073 13.95 13.0504 13.95H13.5004ZM13.9504 10.35C13.9504 9.10688 12.9435 8.1 11.7004 8.1H11.2504C11.0029 8.1 10.8004 8.3025 10.8004 8.55C10.8004 9.79313 11.8073 10.8 13.0504 10.8H13.5004C13.7479 10.8 13.9504 10.5975 13.9504 10.35ZM14.4004 3.6C14.0263 3.6 13.7254 3.90094 13.7254 4.275V7.2C13.7254 7.57407 14.0263 7.875 14.4004 7.875C14.7745 7.875 15.0754 7.57407 15.0754 7.2V4.275C15.0754 3.90094 14.7745 3.6 14.4004 3.6ZM17.1004 5.4C17.1004 5.02594 16.7995 4.725 16.4254 4.725C16.0513 4.725 15.7504 5.02594 15.7504 5.4V6.3C15.7504 6.67407 16.0513 6.975 16.4254 6.975C16.7995 6.975 17.1004 6.67407 17.1004 6.3V5.4ZM12.3754 4.725C12.0013 4.725 11.7004 5.02594 11.7004 5.4V6.3C11.7004 6.67407 12.0013 6.975 12.3754 6.975C12.7495 6.975 13.0504 6.67407 13.0504 6.3V5.4C13.0504 5.02594 12.7495 4.725 12.3754 4.725Z" fill="#0F503C"/>
</g>
<defs>
<clipPath id="clip0_3342_10083">
<rect width="18" height="18" fill="white"/>
</clipPath>
</defs>
</svg>
