<svg width="20" height="20" viewBox="0 0 20 20" fill="none" xmlns="http://www.w3.org/2000/svg">
<path d="M3 9V15C3 15.5531 3.44688 16 4 16H5C5.55312 16 6 15.5531 6 15V12.2437C6.30937 12.45 6.64375 12.6187 7 12.7469V13.5031C7 13.7781 7.225 14.0031 7.5 14.0031C7.775 14.0031 8 13.7781 8 13.5031V12.975C8.16562 12.9938 8.33125 13.0031 8.5 13.0031C8.66875 13.0031 8.83438 12.9938 9 12.975V13.5031C9 13.7781 9.225 14.0031 9.5 14.0031C9.775 14.0031 10 13.7781 10 13.5031V12.7469C10.3562 12.6219 10.6906 12.4531 11 12.2437V15C11 15.5531 11.4469 16 12 16H13C13.5531 16 14 15.5531 14 15V10L15 11V12.5469C15 12.8438 15.0875 13.1313 15.2531 13.3781L16.5625 15.3438C16.8375 15.7531 17.2969 16 17.7906 16C18.4937 16 19.1 15.5031 19.2375 14.8125L19.8719 11.6375C19.9531 11.2312 19.8625 10.8094 19.6219 10.4719L19.5 10.3V7.75C19.5 7.33437 19.1656 7 18.75 7C18.3344 7 18 7.33437 18 7.75V8.2L16.3469 5.88438C15.5 4.70313 14.1375 4 12.6844 4H4.5C2.42812 4 0.75 5.67812 0.75 7.75V9.4375C0.29375 9.80625 0 10.3688 0 11V11.55C0 11.8 0.2 12 0.45 12C1.44375 12 2.25 11.1937 2.25 10.2V7.75C2.25 6.99062 2.62812 6.31875 3.20312 5.90938C3.07188 6.24688 3 6.61562 3 7V9ZM17.5 12.5C17.5 12.225 17.725 12 18 12C18.275 12 18.5 12.225 18.5 12.5C18.5 12.775 18.275 13 18 13C17.725 13 17.5 12.775 17.5 12.5ZM5.20625 7.20625C5.075 7.075 5 6.89375 5 6.70625C5 6.31563 5.31563 6 5.70625 6H11.2906C11.6812 6 11.9969 6.31563 11.9969 6.70625C11.9969 6.89375 11.9219 7.075 11.7906 7.20625L11.0594 7.9375C10.3812 8.61875 9.45938 9 8.5 9C7.54063 9 6.61875 8.61875 5.94063 7.94063L5.20937 7.20937L5.20625 7.20625Z" fill="white"/>
</svg>
