<svg width="15" height="15" viewBox="0 0 15 15" fill="none" xmlns="http://www.w3.org/2000/svg">
<path d="M7.2 0C8.235 0 9.135 0.582187 9.58781 1.43719C10.5131 1.15312 11.5594 1.37531 12.2906 2.10938C13.0219 2.84344 13.2469 3.88969 12.9628 4.815C13.8178 5.265 14.4 6.165 14.4 7.2C14.4 8.235 13.8178 9.135 12.9628 9.58781C13.2469 10.5131 13.0219 11.5594 12.2906 12.2906C11.5594 13.0219 10.5103 13.2469 9.585 12.9628C9.135 13.8178 8.235 14.4 7.2 14.4C6.165 14.4 5.265 13.8178 4.81219 12.9628C3.88687 13.2469 2.84062 13.0219 2.10938 12.2906C1.37812 11.5594 1.15312 10.5103 1.43719 9.585C0.582187 9.135 0 8.235 0 7.2C0 6.165 0.582187 5.265 1.43719 4.81219C1.15312 3.88687 1.37531 2.84062 2.10938 2.10938C2.84344 1.37812 3.88969 1.15312 4.815 1.43719C5.265 0.582187 6.165 0 7.2 0ZM9.75656 4.62937C9.45562 4.41 9.03375 4.4775 8.81437 4.77844L6.40687 8.08875L5.66156 7.31813C5.40281 7.05094 4.97531 7.0425 4.70812 7.30125C4.44094 7.56 4.4325 7.9875 4.69125 8.25469L5.99625 9.60469C6.13406 9.74813 6.32812 9.82406 6.52781 9.81C6.7275 9.79594 6.91031 9.69469 7.02844 9.53438L9.90563 5.57156C10.125 5.27063 10.0575 4.84875 9.75656 4.62937Z" fill="#0F503C"/>
</svg>
