<svg id="Layer_1" enable-background="new 0 0 512 512" height="512" viewBox="0 0 512 512" width="512" xmlns="http://www.w3.org/2000/svg"><g><path d="m443.203 188.468-2.277-22.664 2.277-3.532-3.795-40.663-6.595-4.094h-44.555l-5.408 4.094-3.794 40.663 2.377 2.631-2.377 24.724-2.761 2.234-9.927 106.382 4.892 3.637h80.354l4.277-3.637-9.927-106.382z" fill="#dbedff"/><path d="m407.544 191.861 2.761-2.234 2.377-24.724-2.377-2.631 3.794-40.663 5.408-4.094h-31.249l-5.408 4.094-3.794 40.663 2.377 2.631-2.377 24.724-2.761 2.234-9.927 106.382 4.892 3.637h31.249l-4.892-3.637z" fill="#b5dcff"/><path d="m485.488 298.243h-154.463l-8.012 7.794v177.877h165.859l2.361-2.112v-177.814c0-3.173-2.572-5.745-5.745-5.745z" fill="#8479c2"/><path d="m366.368 303.988c0-3.173 2.572-5.745 5.745-5.745h-41.088l-8.012 7.794v177.877h45.716l-2.361-2.112z" fill="#6e60b8"/><path d="m442.499 92.02h-62.739c-2.968 0-5.374 2.405-5.374 5.373v18.842c0 2.968 2.406 5.373 5.374 5.373h62.739c2.968 0 5.374-2.405 5.374-5.373v-18.842c-.001-2.967-2.407-5.373-5.374-5.373z" fill="#b5dcff"/><path d="m404.605 116.236v-18.843c0-2.968 2.406-5.373 5.374-5.373h-30.219c-2.968 0-5.374 2.405-5.374 5.373v18.842c0 2.968 2.406 5.373 5.374 5.373h30.218c-2.967.001-5.373-2.404-5.373-5.372z" fill="#8bcaff"/><path d="m401.909 19.048c-2.062.465-4.138-.633-5.083-2.524-8.894-17.774-32.746-22.069-47.289-8.596-1.736 1.609-4.449 1.602-6.19-.003-11.466-10.561-29.261-10.569-40.735-.007-1.742 1.604-4.462 1.616-6.194.001-18.487-17.25-50.531-4.678-50.531 22.224 0 26.907 32.047 39.468 50.531 22.224 1.732-1.616 4.451-1.604 6.194.001 11.472 10.558 29.273 10.56 40.743-.014 1.738-1.603 4.445-1.608 6.184-.006 10.339 9.518 25.989 10.591 37.518 2.599 1.751-1.214 4.108-1.165 5.705.245 12.847 11.347 34.537 2.654 34.537-15.767-.001-13.674-12.758-23.226-25.39-20.377z" fill="#dbedff"/><path d="m392.761 31.753c-1.597-1.41-3.954-1.459-5.705-.245-11.529 7.992-27.18 6.919-37.518-2.599-1.739-1.602-4.446-1.597-6.184.006-11.47 10.574-29.271 10.572-40.743.014-1.742-1.604-4.462-1.616-6.194-.001-15.534 14.492-40.64 7.929-48.26-10.505-1.447 3.5-2.27 7.424-2.27 11.718 0 26.907 32.047 39.468 50.531 22.224 1.732-1.616 4.451-1.604 6.194.001 11.472 10.558 29.273 10.56 40.743-.014 1.738-1.603 4.445-1.608 6.184-.006 10.339 9.518 25.989 10.591 37.518 2.599 1.751-1.214 4.108-1.165 5.705.245 12.847 11.347 34.537 2.654 34.537-15.767 0-4.41-1.332-8.386-3.555-11.661-6.686 9.728-21.33 12.517-30.983 3.991z" fill="#b5dcff"/><path d="m376.295 191.861h69.669l-2.761-29.589h-64.147z" fill="#f27182"/><path d="m379.056 162.272-2.761 29.589h31.248l2.762-29.589z" fill="#ed5469"/><path d="m364.986 452.175h92.286v30.972h-92.286z" fill="#00d2fc"/><path d="m364.986 452.175h43.411v30.972h-43.411z" fill="#00c2fb"/><path d="m364.986 395.603h92.286v30.972h-92.286z" fill="#00d2fc"/><path d="m364.986 395.603h43.411v30.972h-43.411z" fill="#00c2fb"/><path d="m321.924 246.893-90.862 45.742c-2.118 1.067-3.455 3.236-3.455 5.608l-3.49 3.637v182.034h102.674l4.235-2.112v-229.301c-.001-4.675-4.926-7.71-9.102-5.608z" fill="#ffc365"/><path d="m364.986 425.232h92.286v28.286h-92.286z" fill="#62ddfc"/><path d="m364.986 425.232h43.411v28.286h-43.411z" fill="#00d2fc"/><path d="m455.891 365.754h-89.523c-.48 0-.938-.093-1.381-.224v31.416h92.286v-31.416c-.444.131-.901.224-1.382.224z" fill="#62ddfc"/><path d="m407.747 365.754h-42.111c-.226 0-.441-.093-.65-.224v31.416h43.411v-31.416c-.209.131-.424.224-.65.224z" fill="#00d2fc"/><path d="m455.891 339.274h-89.523c-2.968 0-5.374 2.405-5.374 5.373v18.842c0 2.968 2.406 5.373 5.374 5.373h89.523c2.968 0 5.374-2.405 5.374-5.373v-18.842c0-2.968-2.406-5.373-5.374-5.373z" fill="#dbedff"/><path d="m403.023 363.49v-18.842c0-2.968 2.406-5.373 5.374-5.373h-42.029c-2.968 0-5.374 2.405-5.374 5.373v18.842c0 2.968 2.406 5.373 5.374 5.373h42.029c-2.968 0-5.374-2.406-5.374-5.373z" fill="#b5dcff"/><path d="m256.551 308.248c0-2.372 1.337-4.541 3.455-5.608l71.019-35.752v-14.387c0-4.675-4.926-7.71-9.102-5.608l-90.862 45.742c-2.118 1.067-3.455 3.236-3.455 5.608v183.56h28.945z" fill="#ffa90f"/><path d="m218.504 246.893-90.862 45.742c-2.118 1.067-3.455 3.236-3.455 5.608l-4.462 3.637v184.781h99.927l7.954-4.859v-229.301c0-4.675-4.926-7.71-9.102-5.608z" fill="#ffc365"/><path d="m153.132 308.248c0-2.372 1.337-4.541 3.455-5.608l71.019-35.752v-14.387c0-4.675-4.926-7.71-9.102-5.608l-90.862 45.742c-2.118 1.067-3.455 3.236-3.455 5.608v183.56h28.945z" fill="#ffa90f"/><path d="m115.085 246.893-90.862 45.742c-2.118 1.067-3.455 3.236-3.455 5.608v183.56h103.419v-229.302c0-4.675-4.926-7.71-9.102-5.608z" fill="#ffc365"/><path d="m49.712 308.248c0-2.372 1.337-4.541 3.455-5.608l71.019-35.752v-14.387c0-4.675-4.926-7.71-9.102-5.608l-90.862 45.742c-2.118 1.067-3.455 3.236-3.455 5.608v183.56h28.945z" fill="#ffa90f"/><path d="m504.533 480.773h-497.066c-4.124 0-7.467 3.343-7.467 7.467v16.293c0 4.124 3.343 7.467 7.467 7.467h497.066c4.124 0 7.467-3.343 7.467-7.467v-16.293c0-4.124-3.343-7.467-7.467-7.467z" fill="#dbedff"/><path d="m504.533 496.387h-497.066c-4.124 0-7.467-3.343-7.467-7.467v15.614c0 4.123 3.343 7.466 7.467 7.466h497.066c4.124 0 7.467-3.343 7.467-7.467v-15.614c0 4.125-3.343 7.468-7.467 7.468z" fill="#b5dcff"/><g fill="#00d2fc"><path d="m296.731 321.274h-34.83c-3.523 0-6.38 2.856-6.38 6.38v38.951c0 3.523 2.857 6.38 6.38 6.38h34.83c3.523 0 6.38-2.856 6.38-6.38v-38.951c-.001-3.524-2.857-6.38-6.38-6.38z"/><path d="m193.311 321.274h-34.83c-3.523 0-6.38 2.856-6.38 6.38v38.951c0 3.523 2.857 6.38 6.38 6.38h34.83c3.523 0 6.38-2.856 6.38-6.38v-38.951c0-3.524-2.857-6.38-6.38-6.38z"/><path d="m89.892 321.274h-34.83c-3.523 0-6.38 2.856-6.38 6.38v38.951c0 3.523 2.857 6.38 6.38 6.38h34.83c3.523 0 6.38-2.856 6.38-6.38v-38.951c0-3.524-2.857-6.38-6.38-6.38z"/></g><path d="m279.316 366.604v-38.951c0-3.523 2.857-6.379 6.38-6.379h-23.795c-3.523 0-6.38 2.856-6.38 6.379v38.951c0 3.523 2.857 6.38 6.38 6.38h23.795c-3.524 0-6.38-2.856-6.38-6.38z" fill="#00c2fb"/><path d="m175.896 366.604v-38.951c0-3.523 2.857-6.379 6.38-6.379h-23.795c-3.523 0-6.38 2.856-6.38 6.379v38.951c0 3.523 2.856 6.38 6.38 6.38h23.795c-3.523 0-6.38-2.856-6.38-6.38z" fill="#00c2fb"/><path d="m72.477 366.604v-38.951c0-3.523 2.856-6.379 6.38-6.379h-23.795c-3.523 0-6.38 2.856-6.38 6.379v38.951c0 3.523 2.856 6.38 6.38 6.38h23.795c-3.524 0-6.38-2.856-6.38-6.38z" fill="#00c2fb"/></g></svg>