<svg width="142" height="32" viewBox="0 0 142 32" fill="none" xmlns="http://www.w3.org/2000/svg">
<path d="M14.808 18.456H5.496L3.896 23H0.0880001L8.056 0.727999H12.28L20.248 23H16.408L14.808 18.456ZM13.784 15.48L10.168 5.144L6.52 15.48H13.784ZM29.8565 5.08C31.2218 5.08 32.4272 5.35733 33.4725 5.912C34.5392 6.44533 35.3712 7.11733 35.9685 7.928V5.368H39.6485V23.288C39.6485 24.9093 39.3072 26.3493 38.6245 27.608C37.9418 28.888 36.9498 29.8907 35.6485 30.616C34.3685 31.3413 32.8325 31.704 31.0405 31.704C28.6512 31.704 26.6672 31.1387 25.0885 30.008C23.5098 28.8987 22.6138 27.384 22.4005 25.464H26.0165C26.2938 26.3813 26.8805 27.1173 27.7765 27.672C28.6938 28.248 29.7818 28.536 31.0405 28.536C32.5125 28.536 33.6965 28.088 34.5925 27.192C35.5098 26.296 35.9685 24.9947 35.9685 23.288V20.344C35.3498 21.176 34.5072 21.88 33.4405 22.456C32.3952 23.0107 31.2005 23.288 29.8565 23.288C28.3205 23.288 26.9125 22.904 25.6325 22.136C24.3738 21.3467 23.3712 20.2587 22.6245 18.872C21.8992 17.464 21.5365 15.8747 21.5365 14.104C21.5365 12.3333 21.8992 10.7653 22.6245 9.4C23.3712 8.03467 24.3738 6.97867 25.6325 6.232C26.9125 5.464 28.3205 5.08 29.8565 5.08ZM35.9685 14.168C35.9685 12.952 35.7125 11.896 35.2005 11C34.7098 10.104 34.0592 9.42133 33.2485 8.952C32.4378 8.48267 31.5632 8.248 30.6245 8.248C29.6858 8.248 28.8112 8.48267 28.0005 8.952C27.1898 9.4 26.5285 10.072 26.0165 10.968C25.5258 11.8427 25.2805 12.888 25.2805 14.104C25.2805 15.32 25.5258 16.3867 26.0165 17.304C26.5285 18.2213 27.1898 18.9253 28.0005 19.416C28.8325 19.8853 29.7072 20.12 30.6245 20.12C31.5632 20.12 32.4378 19.8853 33.2485 19.416C34.0592 18.9467 34.7098 18.264 35.2005 17.368C35.7125 16.4507 35.9685 15.384 35.9685 14.168ZM47.128 7.928C47.6613 7.032 48.3653 6.33867 49.24 5.848C50.136 5.336 51.192 5.08 52.408 5.08V8.856H51.48C50.0507 8.856 48.9627 9.21867 48.216 9.944C47.4907 10.6693 47.128 11.928 47.128 13.72V23H43.48V5.368H47.128V7.928ZM62.4492 23.288C60.7852 23.288 59.2812 22.9147 57.9372 22.168C56.5932 21.4 55.5372 20.3333 54.7692 18.968C54.0012 17.5813 53.6172 15.9813 53.6172 14.168C53.6172 12.376 54.0119 10.7867 54.8012 9.4C55.5906 8.01333 56.6679 6.94667 58.0332 6.2C59.3986 5.45333 60.9239 5.08 62.6092 5.08C64.2946 5.08 65.8199 5.45333 67.1852 6.2C68.5506 6.94667 69.6279 8.01333 70.4172 9.4C71.2066 10.7867 71.6012 12.376 71.6012 14.168C71.6012 15.96 71.1959 17.5493 70.3853 18.936C69.5746 20.3227 68.4653 21.4 67.0573 22.168C65.6706 22.9147 64.1346 23.288 62.4492 23.288ZM62.4492 20.12C63.3879 20.12 64.2626 19.896 65.0732 19.448C65.9052 19 66.5772 18.328 67.0892 17.432C67.6012 16.536 67.8572 15.448 67.8572 14.168C67.8572 12.888 67.6119 11.8107 67.1212 10.936C66.6306 10.04 65.9799 9.368 65.1692 8.92C64.3586 8.472 63.4839 8.248 62.5452 8.248C61.6066 8.248 60.7319 8.472 59.9212 8.92C59.1319 9.368 58.5026 10.04 58.0332 10.936C57.5639 11.8107 57.3292 12.888 57.3292 14.168C57.3292 16.0667 57.8092 17.5387 58.7692 18.584C59.7506 19.608 60.9772 20.12 62.4492 20.12ZM77.8635 0.759998V14.936C77.8635 16.6213 78.3008 17.8907 79.1755 18.744C80.0715 19.5973 81.3088 20.024 82.8875 20.024C84.4875 20.024 85.7248 19.5973 86.5995 18.744C87.4955 17.8907 87.9435 16.6213 87.9435 14.936V0.759998H91.5915V14.872C91.5915 16.6853 91.1968 18.2213 90.4075 19.48C89.6182 20.7387 88.5622 21.6773 87.2395 22.296C85.9168 22.9147 84.4555 23.224 82.8555 23.224C81.2555 23.224 79.7942 22.9147 78.4715 22.296C77.1702 21.6773 76.1355 20.7387 75.3675 19.48C74.5995 18.2213 74.2155 16.6853 74.2155 14.872V0.759998H77.8635ZM98.6132 20.024H106.613V23H94.3892V20.024L102.421 8.344H94.3892V5.368H106.613V8.344L98.6132 20.024ZM125.644 13.752C125.644 14.4133 125.601 15.0107 125.516 15.544H112.044C112.15 16.952 112.673 18.0827 113.612 18.936C114.55 19.7893 115.702 20.216 117.068 20.216C119.03 20.216 120.417 19.3947 121.228 17.752H125.164C124.63 19.3733 123.66 20.7067 122.252 21.752C120.865 22.776 119.137 23.288 117.068 23.288C115.382 23.288 113.868 22.9147 112.524 22.168C111.201 21.4 110.156 20.3333 109.388 18.968C108.641 17.5813 108.268 15.9813 108.268 14.168C108.268 12.3547 108.63 10.7653 109.356 9.4C110.102 8.01333 111.137 6.94667 112.46 6.2C113.804 5.45333 115.34 5.08 117.068 5.08C118.732 5.08 120.214 5.44267 121.516 6.168C122.817 6.89333 123.83 7.91733 124.556 9.24C125.281 10.5413 125.644 12.0453 125.644 13.752ZM121.836 12.6C121.814 11.256 121.334 10.1787 120.396 9.368C119.457 8.55733 118.294 8.152 116.908 8.152C115.649 8.152 114.572 8.55733 113.676 9.368C112.78 10.1573 112.246 11.2347 112.076 12.6H121.836ZM135.826 14.072L141.522 23H137.394L133.586 17.016L130.002 23H126.194L131.89 14.328L126.194 5.368H130.322L134.13 11.352L137.714 5.368H141.522L135.826 14.072Z" fill="white"/>
</svg>
