<svg width="24" height="24" viewBox="0 0 24 24" fill="none" xmlns="http://www.w3.org/2000/svg">
<path d="M15.8652 16.2959L7.02246 21.4004L6.99609 21.416C6.668 21.6094 6.28539 21.7197 5.87793 21.7197C5.01821 21.7197 4.26379 21.1972 3.90137 20.4688L11.9697 12.4014L15.8652 16.2959ZM11.4277 11.8594L3.67676 19.6084C3.67535 19.5772 3.67188 19.5461 3.67188 19.5146V4.20508C3.67188 4.17334 3.67533 4.14184 3.67676 4.11035L11.4277 11.8594ZM20.1602 9.93652L20.168 9.94238C20.8526 10.3171 21.3154 11.0432 21.3154 11.8779C21.3153 12.7188 20.846 13.4479 20.1543 13.8213L16.5527 15.8994L12.5117 11.8594L16.5361 7.83496L20.1602 9.93652ZM5.87793 2C6.29432 2.00007 6.68316 2.11577 7.0166 2.31543L15.8496 7.4375L11.9697 11.3174L3.9668 3.31543L3.90137 3.25C4.26385 2.52186 5.01826 2 5.87793 2Z" fill="#0F503C"/>
</svg>
