<svg width="20" height="20" viewBox="0 0 20 20" fill="none" xmlns="http://www.w3.org/2000/svg">
<path d="M3.49072 9.33125C3.68447 9.20312 3.9501 9.225 4.11885 9.39688L5.55947 10.8375L5.7501 11.0469C6.36572 11.7906 6.57197 12.7656 6.35322 13.6687C7.34385 13.4281 8.42197 13.7 9.18447 14.4594L10.6251 15.9C10.8188 16.0938 10.8188 16.4125 10.6251 16.6063L10.3938 16.8375C9.22197 18.0094 7.32197 18.0094 6.1501 16.8375L5.19072 15.8844L2.54385 18.5312C2.2501 18.825 1.77822 18.825 1.48447 18.5312C1.19072 18.2375 1.19072 17.7625 1.48447 17.4719L4.13135 14.825L3.17822 13.8719C2.00635 12.7 2.00635 10.8 3.17822 9.62813L3.40947 9.39688L3.4876 9.33125H3.49072ZM6.74072 6.08125C6.93447 5.95312 7.2001 5.975 7.36885 6.14687L8.80947 7.5875L9.0001 7.79688C9.61572 8.54063 9.82197 9.51562 9.60322 10.4187C10.5938 10.1781 11.672 10.45 12.4345 11.2094L13.8751 12.65C14.0688 12.8438 14.0688 13.1625 13.8751 13.3562L13.6438 13.5875C12.472 14.7594 10.572 14.7594 9.4001 13.5875L6.43447 10.6219C5.2626 9.45 5.2626 7.55 6.43447 6.37813L6.66572 6.14687L6.74385 6.08125H6.74072ZM9.99072 2.83125C10.1845 2.70312 10.4501 2.725 10.6188 2.89687L12.0595 4.3375L12.2501 4.54688C12.8657 5.29063 13.072 6.26562 12.8532 7.16875C13.8438 6.92812 14.922 7.2 15.6845 7.95937L17.1251 9.4C17.3188 9.59375 17.3188 9.9125 17.1251 10.1062L16.8938 10.3375C15.722 11.5094 13.822 11.5094 12.6501 10.3375L9.68447 7.37187C8.5126 6.2 8.5126 4.3 9.68447 3.13125L9.91572 2.9L9.99385 2.83437L9.99072 2.83125ZM18.1126 1.50937C18.2095 1.52812 18.297 1.575 18.3688 1.64688C18.4626 1.74063 18.5157 1.86875 18.5157 2V3.09375L18.5126 3.24375C18.4376 4.73125 17.247 5.92188 15.7595 5.99687L15.6095 6H14.5157C14.3845 6 14.2563 5.94688 14.1626 5.85313C14.0688 5.75938 14.0157 5.63125 14.0157 5.5V4.40625C14.0157 2.8 15.3157 1.5 16.922 1.5H18.0157L18.1126 1.50937Z" fill="white"/>
</svg>
