<svg width="20" height="20" viewBox="0 0 20 20" fill="none" xmlns="http://www.w3.org/2000/svg">
<path d="M6.29961 6.79374L5.71524 6.20936C5.32461 5.81874 5.32461 5.18436 5.71524 4.79374L9.29961 1.20624C9.69024 0.815613 10.3246 0.815613 10.7152 1.20624L11.2996 1.79374C11.6902 2.18436 11.6902 2.81874 11.2996 3.20936L7.71524 6.79374C7.32461 7.18436 6.69024 7.18436 6.29961 6.79374ZM9.62461 8.61561L8.64336 7.63436L12.1434 4.13436L15.8746 7.86561L12.3746 11.3656L11.3934 10.3844L4.14336 17.6344C3.65586 18.1219 2.86524 18.1219 2.37461 17.6344C1.88399 17.1469 1.88711 16.3562 2.37461 15.8656L9.62461 8.61561ZM13.2152 13.7062C12.8246 13.3156 12.8246 12.6812 13.2152 12.2906L16.7996 8.70624C17.1902 8.31561 17.8246 8.31561 18.2152 8.70624L18.7996 9.29061C19.1902 9.68124 19.1902 10.3156 18.7996 10.7062L15.2152 14.2937C14.8246 14.6844 14.1902 14.6844 13.7996 14.2937L13.2152 13.7094V13.7062Z" fill="white"/>
</svg>
