<svg width="125" height="24" viewBox="0 0 125 24" fill="none" xmlns="http://www.w3.org/2000/svg">
<path d="M15.248 14.288H6.148L4.354 18.5H0.87L9.06 0.299999H12.388L20.604 18.5H17.068L15.248 14.288ZM14.13 11.636L10.698 3.68L7.292 11.636H14.13ZM35.4797 4.616V16.394C35.4797 21.282 32.9837 23.726 27.9917 23.726C26.657 23.726 25.3917 23.5527 24.1957 23.206C22.9997 22.8767 22.0117 22.3913 21.2317 21.75L22.6877 19.306C23.2943 19.8087 24.057 20.2073 24.9757 20.502C25.9117 20.814 26.8563 20.97 27.8097 20.97C29.335 20.97 30.453 20.6233 31.1637 19.93C31.8743 19.2367 32.2297 18.1793 32.2297 16.758V16.03C31.675 16.6367 30.999 17.096 30.2017 17.408C29.4043 17.72 28.529 17.876 27.5757 17.876C26.2583 17.876 25.0623 17.5987 23.9877 17.044C22.9303 16.472 22.0897 15.6747 21.4657 14.652C20.859 13.6293 20.5557 12.4593 20.5557 11.142C20.5557 9.82467 20.859 8.66333 21.4657 7.658C22.0897 6.63533 22.9303 5.84667 23.9877 5.292C25.0623 4.73733 26.2583 4.46 27.5757 4.46C28.581 4.46 29.491 4.62467 30.3057 4.954C31.1377 5.28333 31.831 5.786 32.3857 6.462V4.616H35.4797ZM28.0697 15.12C29.3003 15.12 30.3057 14.756 31.0857 14.028C31.883 13.2827 32.2817 12.3207 32.2817 11.142C32.2817 9.98067 31.883 9.036 31.0857 8.308C30.3057 7.58 29.3003 7.216 28.0697 7.216C26.8217 7.216 25.799 7.58 25.0017 8.308C24.2217 9.036 23.8317 9.98067 23.8317 11.142C23.8317 12.3207 24.2217 13.2827 25.0017 14.028C25.799 14.756 26.8217 15.12 28.0697 15.12ZM42.0664 6.644C43.0024 5.188 44.6491 4.46 47.0064 4.46V7.554C46.7291 7.502 46.4777 7.476 46.2524 7.476C44.9871 7.476 43.9991 7.84867 43.2884 8.594C42.5777 9.322 42.2224 10.3793 42.2224 11.766V18.5H38.9724V4.616H42.0664V6.644ZM55.0965 18.682C53.6925 18.682 52.4271 18.3787 51.3005 17.772C50.1738 17.1653 49.2898 16.3247 48.6485 15.25C48.0245 14.158 47.7125 12.9273 47.7125 11.558C47.7125 10.1887 48.0245 8.96667 48.6485 7.892C49.2898 6.81733 50.1738 5.97667 51.3005 5.37C52.4271 4.76333 53.6925 4.46 55.0965 4.46C56.5178 4.46 57.7918 4.76333 58.9185 5.37C60.0451 5.97667 60.9205 6.81733 61.5445 7.892C62.1858 8.96667 62.5065 10.1887 62.5065 11.558C62.5065 12.9273 62.1858 14.158 61.5445 15.25C60.9205 16.3247 60.0451 17.1653 58.9185 17.772C57.7918 18.3787 56.5178 18.682 55.0965 18.682ZM55.0965 15.9C56.2925 15.9 57.2805 15.5013 58.0605 14.704C58.8405 13.9067 59.2305 12.858 59.2305 11.558C59.2305 10.258 58.8405 9.20933 58.0605 8.412C57.2805 7.61467 56.2925 7.216 55.0965 7.216C53.9005 7.216 52.9125 7.61467 52.1325 8.412C51.3698 9.20933 50.9885 10.258 50.9885 11.558C50.9885 12.858 51.3698 13.9067 52.1325 14.704C52.9125 15.5013 53.9005 15.9 55.0965 15.9ZM72.5914 18.76C70.0781 18.76 68.1194 18.058 66.7154 16.654C65.3114 15.2327 64.6094 13.2047 64.6094 10.57V0.299999H67.9894V10.44C67.9894 14.0107 69.5321 15.796 72.6174 15.796C75.6854 15.796 77.2194 14.0107 77.2194 10.44V0.299999H80.5474V10.57C80.5474 13.2047 79.8454 15.2327 78.4414 16.654C77.0547 18.058 75.1047 18.76 72.5914 18.76ZM95.031 15.9V18.5H83.045V16.446L90.663 7.216H83.201V4.616H94.823V6.67L87.179 15.9H95.031ZM110.096 11.636C110.096 11.8613 110.078 12.182 110.044 12.598H99.1498C99.3405 13.6207 99.8345 14.4353 100.632 15.042C101.446 15.6313 102.452 15.926 103.648 15.926C105.173 15.926 106.43 15.4233 107.418 14.418L109.16 16.42C108.536 17.1653 107.747 17.7287 106.794 18.11C105.84 18.4913 104.766 18.682 103.57 18.682C102.044 18.682 100.701 18.3787 99.5398 17.772C98.3785 17.1653 97.4771 16.3247 96.8358 15.25C96.2118 14.158 95.8998 12.9273 95.8998 11.558C95.8998 10.206 96.2031 8.99267 96.8098 7.918C97.4338 6.826 98.2918 5.97667 99.3838 5.37C100.476 4.76333 101.706 4.46 103.076 4.46C104.428 4.46 105.632 4.76333 106.69 5.37C107.764 5.95933 108.596 6.8 109.186 7.892C109.792 8.96667 110.096 10.2147 110.096 11.636ZM103.076 7.06C102.036 7.06 101.152 7.372 100.424 7.996C99.7131 8.60267 99.2798 9.41733 99.1238 10.44H107.002C106.863 9.43467 106.438 8.62 105.728 7.996C105.017 7.372 104.133 7.06 103.076 7.06ZM120.897 18.5L117.335 13.69L113.747 18.5H110.159L115.567 11.454L110.393 4.616H114.007L117.413 9.166L120.819 4.616H124.329L119.129 11.402L124.563 18.5H120.897Z" fill="#002603"/>
</svg>
