<svg width="114" height="114" viewBox="0 0 114 114" fill="none" xmlns="http://www.w3.org/2000/svg">
<g filter="url(#filter0_d_3342_10319)">
<rect x="7" y="5" width="100" height="100" rx="8" fill="#FAFAFA"/>
<rect x="4.5" y="2.5" width="105" height="105" rx="10.5" stroke="white" stroke-width="5"/>
<path d="M11.8779 9.87793H14.317V12.317H11.8779V9.87793Z" fill="black"/>
<path d="M14.317 9.87793H16.756V12.317H14.317V9.87793Z" fill="black"/>
<path d="M16.756 9.87793H19.195V12.317H16.756V9.87793Z" fill="black"/>
<path d="M19.195 9.87793H21.634V12.317H19.195V9.87793Z" fill="black"/>
<path d="M21.634 9.87793H24.0731V12.317H21.634V9.87793Z" fill="black"/>
<path d="M24.0731 9.87793H26.5121V12.317H24.0731V9.87793Z" fill="black"/>
<path d="M26.5121 9.87793H28.9511V12.317H26.5121V9.87793Z" fill="black"/>
<path d="M31.3901 9.87793H33.8291V12.317H31.3901V9.87793Z" fill="black"/>
<path d="M33.8291 9.87793H36.2682V12.317H33.8291V9.87793Z" fill="black"/>
<path d="M36.2682 9.87793H38.7072V12.317H36.2682V9.87793Z" fill="black"/>
<path d="M38.7072 9.87793H41.1462V12.317H38.7072V9.87793Z" fill="black"/>
<path d="M43.5852 9.87793H46.0243V12.317H43.5852V9.87793Z" fill="black"/>
<path d="M53.3413 9.87793H55.7804V12.317H53.3413V9.87793Z" fill="black"/>
<path d="M55.7804 9.87793H58.2194V12.317H55.7804V9.87793Z" fill="black"/>
<path d="M72.8535 9.87793H75.2926V12.317H72.8535V9.87793Z" fill="black"/>
<path d="M85.0487 9.87793H87.4877V12.317H85.0487V9.87793Z" fill="black"/>
<path d="M87.4877 9.87793H89.9267V12.317H87.4877V9.87793Z" fill="black"/>
<path d="M89.9267 9.87793H92.3657V12.317H89.9267V9.87793Z" fill="black"/>
<path d="M92.3657 9.87793H94.8048V12.317H92.3657V9.87793Z" fill="black"/>
<path d="M94.8048 9.87793H97.2438V12.317H94.8048V9.87793Z" fill="black"/>
<path d="M97.2438 9.87793H99.6828V12.317H97.2438V9.87793Z" fill="black"/>
<path d="M99.6828 9.87793H102.122V12.317H99.6828V9.87793Z" fill="black"/>
<path d="M11.8779 12.317H14.317V14.756H11.8779V12.317Z" fill="black"/>
<path d="M26.5121 12.317H28.9511V14.756H26.5121V12.317Z" fill="black"/>
<path d="M38.7072 12.317H41.1462V14.756H38.7072V12.317Z" fill="black"/>
<path d="M41.1462 12.317H43.5852V14.756H41.1462V12.317Z" fill="black"/>
<path d="M50.9023 12.317H53.3413V14.756H50.9023V12.317Z" fill="black"/>
<path d="M53.3413 12.317H55.7804V14.756H53.3413V12.317Z" fill="black"/>
<path d="M55.7804 12.317H58.2194V14.756H55.7804V12.317Z" fill="black"/>
<path d="M58.2194 12.317H60.6584V14.756H58.2194V12.317Z" fill="black"/>
<path d="M63.0974 12.317H65.5365V14.756H63.0974V12.317Z" fill="black"/>
<path d="M72.8535 12.317H75.2926V14.756H72.8535V12.317Z" fill="black"/>
<path d="M75.2926 12.317H77.7316V14.756H75.2926V12.317Z" fill="black"/>
<path d="M85.0487 12.317H87.4877V14.756H85.0487V12.317Z" fill="black"/>
<path d="M99.6828 12.317H102.122V14.756H99.6828V12.317Z" fill="black"/>
<path d="M11.8779 14.756H14.317V17.195H11.8779V14.756Z" fill="black"/>
<path d="M16.756 14.756H19.195V17.195H16.756V14.756Z" fill="black"/>
<path d="M19.195 14.756H21.634V17.195H19.195V14.756Z" fill="black"/>
<path d="M21.634 14.756H24.0731V17.195H21.634V14.756Z" fill="black"/>
<path d="M26.5121 14.756H28.9511V17.195H26.5121V14.756Z" fill="black"/>
<path d="M33.8291 14.756H36.2682V17.195H33.8291V14.756Z" fill="black"/>
<path d="M38.7072 14.756H41.1462V17.195H38.7072V14.756Z" fill="black"/>
<path d="M43.5852 14.756H46.0243V17.195H43.5852V14.756Z" fill="black"/>
<path d="M46.0243 14.756H48.4633V17.195H46.0243V14.756Z" fill="black"/>
<path d="M48.4633 14.756H50.9023V17.195H48.4633V14.756Z" fill="black"/>
<path d="M55.7804 14.756H58.2194V17.195H55.7804V14.756Z" fill="black"/>
<path d="M60.6584 14.756H63.0974V17.195H60.6584V14.756Z" fill="black"/>
<path d="M63.0974 14.756H65.5365V17.195H63.0974V14.756Z" fill="black"/>
<path d="M65.5365 14.756H67.9755V17.195H65.5365V14.756Z" fill="black"/>
<path d="M72.8535 14.756H75.2926V17.195H72.8535V14.756Z" fill="black"/>
<path d="M77.7316 14.756H80.1706V17.195H77.7316V14.756Z" fill="black"/>
<path d="M80.1706 14.756H82.6096V17.195H80.1706V14.756Z" fill="black"/>
<path d="M85.0487 14.756H87.4877V17.195H85.0487V14.756Z" fill="black"/>
<path d="M89.9267 14.756H92.3657V17.195H89.9267V14.756Z" fill="black"/>
<path d="M92.3657 14.756H94.8048V17.195H92.3657V14.756Z" fill="black"/>
<path d="M94.8048 14.756H97.2438V17.195H94.8048V14.756Z" fill="black"/>
<path d="M99.6828 14.756H102.122V17.195H99.6828V14.756Z" fill="black"/>
<path d="M11.8779 17.195H14.317V19.634H11.8779V17.195Z" fill="black"/>
<path d="M16.756 17.195H19.195V19.634H16.756V17.195Z" fill="black"/>
<path d="M19.195 17.195H21.634V19.634H19.195V17.195Z" fill="black"/>
<path d="M21.634 17.195H24.0731V19.634H21.634V17.195Z" fill="black"/>
<path d="M26.5121 17.195H28.9511V19.634H26.5121V17.195Z" fill="black"/>
<path d="M36.2682 17.195H38.7072V19.634H36.2682V17.195Z" fill="black"/>
<path d="M38.7072 17.195H41.1462V19.634H38.7072V17.195Z" fill="black"/>
<path d="M43.5852 17.195H46.0243V19.634H43.5852V17.195Z" fill="black"/>
<path d="M48.4633 17.195H50.9023V19.634H48.4633V17.195Z" fill="black"/>
<path d="M53.3413 17.195H55.7804V19.634H53.3413V17.195Z" fill="black"/>
<path d="M58.2194 17.195H60.6584V19.634H58.2194V17.195Z" fill="black"/>
<path d="M60.6584 17.195H63.0974V19.634H60.6584V17.195Z" fill="black"/>
<path d="M63.0974 17.195H65.5365V19.634H63.0974V17.195Z" fill="black"/>
<path d="M72.8535 17.195H75.2926V19.634H72.8535V17.195Z" fill="black"/>
<path d="M85.0487 17.195H87.4877V19.634H85.0487V17.195Z" fill="black"/>
<path d="M89.9267 17.195H92.3657V19.634H89.9267V17.195Z" fill="black"/>
<path d="M92.3657 17.195H94.8048V19.634H92.3657V17.195Z" fill="black"/>
<path d="M94.8048 17.195H97.2438V19.634H94.8048V17.195Z" fill="black"/>
<path d="M99.6828 17.195H102.122V19.634H99.6828V17.195Z" fill="black"/>
<path d="M11.8779 19.634H14.317V22.0731H11.8779V19.634Z" fill="black"/>
<path d="M16.756 19.634H19.195V22.0731H16.756V19.634Z" fill="black"/>
<path d="M19.195 19.634H21.634V22.0731H19.195V19.634Z" fill="black"/>
<path d="M21.634 19.634H24.0731V22.0731H21.634V19.634Z" fill="black"/>
<path d="M26.5121 19.634H28.9511V22.0731H26.5121V19.634Z" fill="black"/>
<path d="M36.2682 19.634H38.7072V22.0731H36.2682V19.634Z" fill="black"/>
<path d="M38.7072 19.634H41.1462V22.0731H38.7072V19.634Z" fill="black"/>
<path d="M41.1462 19.634H43.5852V22.0731H41.1462V19.634Z" fill="black"/>
<path d="M46.0243 19.634H48.4633V22.0731H46.0243V19.634Z" fill="black"/>
<path d="M55.7804 19.634H58.2194V22.0731H55.7804V19.634Z" fill="black"/>
<path d="M58.2194 19.634H60.6584V22.0731H58.2194V19.634Z" fill="black"/>
<path d="M63.0974 19.634H65.5365V22.0731H63.0974V19.634Z" fill="black"/>
<path d="M80.1706 19.634H82.6096V22.0731H80.1706V19.634Z" fill="black"/>
<path d="M85.0487 19.634H87.4877V22.0731H85.0487V19.634Z" fill="black"/>
<path d="M89.9267 19.634H92.3657V22.0731H89.9267V19.634Z" fill="black"/>
<path d="M92.3657 19.634H94.8048V22.0731H92.3657V19.634Z" fill="black"/>
<path d="M94.8048 19.634H97.2438V22.0731H94.8048V19.634Z" fill="black"/>
<path d="M99.6828 19.634H102.122V22.0731H99.6828V19.634Z" fill="black"/>
<path d="M11.8779 22.0731H14.317V24.5121H11.8779V22.0731Z" fill="black"/>
<path d="M26.5121 22.0731H28.9511V24.5121H26.5121V22.0731Z" fill="black"/>
<path d="M33.8291 22.0731H36.2682V24.5121H33.8291V22.0731Z" fill="black"/>
<path d="M38.7072 22.0731H41.1462V24.5121H38.7072V22.0731Z" fill="black"/>
<path d="M46.0243 22.0731H48.4633V24.5121H46.0243V22.0731Z" fill="black"/>
<path d="M50.9023 22.0731H53.3413V24.5121H50.9023V22.0731Z" fill="black"/>
<path d="M53.3413 22.0731H55.7804V24.5121H53.3413V22.0731Z" fill="black"/>
<path d="M55.7804 22.0731H58.2194V24.5121H55.7804V22.0731Z" fill="black"/>
<path d="M67.9755 22.0731H70.4145V24.5121H67.9755V22.0731Z" fill="black"/>
<path d="M70.4145 22.0731H72.8535V24.5121H70.4145V22.0731Z" fill="black"/>
<path d="M72.8535 22.0731H75.2926V24.5121H72.8535V22.0731Z" fill="black"/>
<path d="M85.0487 22.0731H87.4877V24.5121H85.0487V22.0731Z" fill="black"/>
<path d="M99.6828 22.0731H102.122V24.5121H99.6828V22.0731Z" fill="black"/>
<path d="M11.8779 24.5121H14.317V26.9511H11.8779V24.5121Z" fill="black"/>
<path d="M14.317 24.5121H16.756V26.9511H14.317V24.5121Z" fill="black"/>
<path d="M16.756 24.5121H19.195V26.9511H16.756V24.5121Z" fill="black"/>
<path d="M19.195 24.5121H21.634V26.9511H19.195V24.5121Z" fill="black"/>
<path d="M21.634 24.5121H24.0731V26.9511H21.634V24.5121Z" fill="black"/>
<path d="M24.0731 24.5121H26.5121V26.9511H24.0731V24.5121Z" fill="black"/>
<path d="M26.5121 24.5121H28.9511V26.9511H26.5121V24.5121Z" fill="black"/>
<path d="M31.3901 24.5121H33.8291V26.9511H31.3901V24.5121Z" fill="black"/>
<path d="M36.2682 24.5121H38.7072V26.9511H36.2682V24.5121Z" fill="black"/>
<path d="M41.1462 24.5121H43.5852V26.9511H41.1462V24.5121Z" fill="black"/>
<path d="M46.0243 24.5121H48.4633V26.9511H46.0243V24.5121Z" fill="black"/>
<path d="M50.9023 24.5121H53.3413V26.9511H50.9023V24.5121Z" fill="black"/>
<path d="M55.7804 24.5121H58.2194V26.9511H55.7804V24.5121Z" fill="black"/>
<path d="M60.6584 24.5121H63.0974V26.9511H60.6584V24.5121Z" fill="black"/>
<path d="M65.5365 24.5121H67.9755V26.9511H65.5365V24.5121Z" fill="black"/>
<path d="M70.4145 24.5121H72.8535V26.9511H70.4145V24.5121Z" fill="black"/>
<path d="M75.2926 24.5121H77.7316V26.9511H75.2926V24.5121Z" fill="black"/>
<path d="M80.1706 24.5121H82.6096V26.9511H80.1706V24.5121Z" fill="black"/>
<path d="M85.0487 24.5121H87.4877V26.9511H85.0487V24.5121Z" fill="black"/>
<path d="M87.4877 24.5121H89.9267V26.9511H87.4877V24.5121Z" fill="black"/>
<path d="M89.9267 24.5121H92.3657V26.9511H89.9267V24.5121Z" fill="black"/>
<path d="M92.3657 24.5121H94.8048V26.9511H92.3657V24.5121Z" fill="black"/>
<path d="M94.8048 24.5121H97.2438V26.9511H94.8048V24.5121Z" fill="black"/>
<path d="M97.2438 24.5121H99.6828V26.9511H97.2438V24.5121Z" fill="black"/>
<path d="M99.6828 24.5121H102.122V26.9511H99.6828V24.5121Z" fill="black"/>
<path d="M31.3901 26.9511H33.8291V29.3901H31.3901V26.9511Z" fill="black"/>
<path d="M33.8291 26.9511H36.2682V29.3901H33.8291V26.9511Z" fill="black"/>
<path d="M41.1462 26.9511H43.5852V29.3901H41.1462V26.9511Z" fill="black"/>
<path d="M43.5852 26.9511H46.0243V29.3901H43.5852V26.9511Z" fill="black"/>
<path d="M50.9023 26.9511H53.3413V29.3901H50.9023V26.9511Z" fill="black"/>
<path d="M60.6584 26.9511H63.0974V29.3901H60.6584V26.9511Z" fill="black"/>
<path d="M65.5365 26.9511H67.9755V29.3901H65.5365V26.9511Z" fill="black"/>
<path d="M67.9755 26.9511H70.4145V29.3901H67.9755V26.9511Z" fill="black"/>
<path d="M72.8535 26.9511H75.2926V29.3901H72.8535V26.9511Z" fill="black"/>
<path d="M11.8779 29.3901H14.317V31.8291H11.8779V29.3901Z" fill="black"/>
<path d="M14.317 29.3901H16.756V31.8291H14.317V29.3901Z" fill="black"/>
<path d="M19.195 29.3901H21.634V31.8291H19.195V29.3901Z" fill="black"/>
<path d="M21.634 29.3901H24.0731V31.8291H21.634V29.3901Z" fill="black"/>
<path d="M26.5121 29.3901H28.9511V31.8291H26.5121V29.3901Z" fill="black"/>
<path d="M33.8291 29.3901H36.2682V31.8291H33.8291V29.3901Z" fill="black"/>
<path d="M41.1462 29.3901H43.5852V31.8291H41.1462V29.3901Z" fill="black"/>
<path d="M46.0243 29.3901H48.4633V31.8291H46.0243V29.3901Z" fill="black"/>
<path d="M48.4633 29.3901H50.9023V31.8291H48.4633V29.3901Z" fill="black"/>
<path d="M50.9023 29.3901H53.3413V31.8291H50.9023V29.3901Z" fill="black"/>
<path d="M53.3413 29.3901H55.7804V31.8291H53.3413V29.3901Z" fill="black"/>
<path d="M58.2194 29.3901H60.6584V31.8291H58.2194V29.3901Z" fill="black"/>
<path d="M60.6584 29.3901H63.0974V31.8291H60.6584V29.3901Z" fill="black"/>
<path d="M67.9755 29.3901H70.4145V31.8291H67.9755V29.3901Z" fill="black"/>
<path d="M70.4145 29.3901H72.8535V31.8291H70.4145V29.3901Z" fill="black"/>
<path d="M77.7316 29.3901H80.1706V31.8291H77.7316V29.3901Z" fill="black"/>
<path d="M80.1706 29.3901H82.6096V31.8291H80.1706V29.3901Z" fill="black"/>
<path d="M85.0487 29.3901H87.4877V31.8291H85.0487V29.3901Z" fill="black"/>
<path d="M99.6828 29.3901H102.122V31.8291H99.6828V29.3901Z" fill="black"/>
<path d="M11.8779 31.8291H14.317V34.2682H11.8779V31.8291Z" fill="black"/>
<path d="M24.0731 31.8291H26.5121V34.2682H24.0731V31.8291Z" fill="black"/>
<path d="M33.8291 31.8291H36.2682V34.2682H33.8291V31.8291Z" fill="black"/>
<path d="M36.2682 31.8291H38.7072V34.2682H36.2682V31.8291Z" fill="black"/>
<path d="M46.0243 31.8291H48.4633V34.2682H46.0243V31.8291Z" fill="black"/>
<path d="M48.4633 31.8291H50.9023V34.2682H48.4633V31.8291Z" fill="black"/>
<path d="M58.2194 31.8291H60.6584V34.2682H58.2194V31.8291Z" fill="black"/>
<path d="M63.0974 31.8291H65.5365V34.2682H63.0974V31.8291Z" fill="black"/>
<path d="M67.9755 31.8291H70.4145V34.2682H67.9755V31.8291Z" fill="black"/>
<path d="M70.4145 31.8291H72.8535V34.2682H70.4145V31.8291Z" fill="black"/>
<path d="M72.8535 31.8291H75.2926V34.2682H72.8535V31.8291Z" fill="black"/>
<path d="M75.2926 31.8291H77.7316V34.2682H75.2926V31.8291Z" fill="black"/>
<path d="M77.7316 31.8291H80.1706V34.2682H77.7316V31.8291Z" fill="black"/>
<path d="M87.4877 31.8291H89.9267V34.2682H87.4877V31.8291Z" fill="black"/>
<path d="M89.9267 31.8291H92.3657V34.2682H89.9267V31.8291Z" fill="black"/>
<path d="M97.2438 31.8291H99.6828V34.2682H97.2438V31.8291Z" fill="black"/>
<path d="M16.756 34.2682H19.195V36.7072H16.756V34.2682Z" fill="black"/>
<path d="M19.195 34.2682H21.634V36.7072H19.195V34.2682Z" fill="black"/>
<path d="M26.5121 34.2682H28.9511V36.7072H26.5121V34.2682Z" fill="black"/>
<path d="M33.8291 34.2682H36.2682V36.7072H33.8291V34.2682Z" fill="black"/>
<path d="M41.1462 34.2682H43.5852V36.7072H41.1462V34.2682Z" fill="black"/>
<path d="M43.5852 34.2682H46.0243V36.7072H43.5852V34.2682Z" fill="black"/>
<path d="M46.0243 34.2682H48.4633V36.7072H46.0243V34.2682Z" fill="black"/>
<path d="M48.4633 34.2682H50.9023V36.7072H48.4633V34.2682Z" fill="black"/>
<path d="M50.9023 34.2682H53.3413V36.7072H50.9023V34.2682Z" fill="black"/>
<path d="M55.7804 34.2682H58.2194V36.7072H55.7804V34.2682Z" fill="black"/>
<path d="M63.0974 34.2682H65.5365V36.7072H63.0974V34.2682Z" fill="black"/>
<path d="M67.9755 34.2682H70.4145V36.7072H67.9755V34.2682Z" fill="black"/>
<path d="M70.4145 34.2682H72.8535V36.7072H70.4145V34.2682Z" fill="black"/>
<path d="M72.8535 34.2682H75.2926V36.7072H72.8535V34.2682Z" fill="black"/>
<path d="M77.7316 34.2682H80.1706V36.7072H77.7316V34.2682Z" fill="black"/>
<path d="M80.1706 34.2682H82.6096V36.7072H80.1706V34.2682Z" fill="black"/>
<path d="M85.0487 34.2682H87.4877V36.7072H85.0487V34.2682Z" fill="black"/>
<path d="M89.9267 34.2682H92.3657V36.7072H89.9267V34.2682Z" fill="black"/>
<path d="M92.3657 34.2682H94.8048V36.7072H92.3657V34.2682Z" fill="black"/>
<path d="M94.8048 34.2682H97.2438V36.7072H94.8048V34.2682Z" fill="black"/>
<path d="M97.2438 34.2682H99.6828V36.7072H97.2438V34.2682Z" fill="black"/>
<path d="M99.6828 34.2682H102.122V36.7072H99.6828V34.2682Z" fill="black"/>
<path d="M19.195 36.7072H21.634V39.1462H19.195V36.7072Z" fill="black"/>
<path d="M21.634 36.7072H24.0731V39.1462H21.634V36.7072Z" fill="black"/>
<path d="M24.0731 36.7072H26.5121V39.1462H24.0731V36.7072Z" fill="black"/>
<path d="M31.3901 36.7072H33.8291V39.1462H31.3901V36.7072Z" fill="black"/>
<path d="M36.2682 36.7072H38.7072V39.1462H36.2682V36.7072Z" fill="black"/>
<path d="M50.9023 36.7072H53.3413V39.1462H50.9023V36.7072Z" fill="black"/>
<path d="M53.3413 36.7072H55.7804V39.1462H53.3413V36.7072Z" fill="black"/>
<path d="M55.7804 36.7072H58.2194V39.1462H55.7804V36.7072Z" fill="black"/>
<path d="M58.2194 36.7072H60.6584V39.1462H58.2194V36.7072Z" fill="black"/>
<path d="M60.6584 36.7072H63.0974V39.1462H60.6584V36.7072Z" fill="black"/>
<path d="M65.5365 36.7072H67.9755V39.1462H65.5365V36.7072Z" fill="black"/>
<path d="M70.4145 36.7072H72.8535V39.1462H70.4145V36.7072Z" fill="black"/>
<path d="M75.2926 36.7072H77.7316V39.1462H75.2926V36.7072Z" fill="black"/>
<path d="M77.7316 36.7072H80.1706V39.1462H77.7316V36.7072Z" fill="black"/>
<path d="M85.0487 36.7072H87.4877V39.1462H85.0487V36.7072Z" fill="black"/>
<path d="M87.4877 36.7072H89.9267V39.1462H87.4877V36.7072Z" fill="black"/>
<path d="M89.9267 36.7072H92.3657V39.1462H89.9267V36.7072Z" fill="black"/>
<path d="M94.8048 36.7072H97.2438V39.1462H94.8048V36.7072Z" fill="black"/>
<path d="M11.8779 39.1462H14.317V41.5852H11.8779V39.1462Z" fill="black"/>
<path d="M14.317 39.1462H16.756V41.5852H14.317V39.1462Z" fill="black"/>
<path d="M19.195 39.1462H21.634V41.5852H19.195V39.1462Z" fill="black"/>
<path d="M24.0731 39.1462H26.5121V41.5852H24.0731V39.1462Z" fill="black"/>
<path d="M26.5121 39.1462H28.9511V41.5852H26.5121V39.1462Z" fill="black"/>
<path d="M36.2682 39.1462H38.7072V41.5852H36.2682V39.1462Z" fill="black"/>
<path d="M43.5852 39.1462H46.0243V41.5852H43.5852V39.1462Z" fill="black"/>
<path d="M50.9023 39.1462H53.3413V41.5852H50.9023V39.1462Z" fill="black"/>
<path d="M58.2194 39.1462H60.6584V41.5852H58.2194V39.1462Z" fill="black"/>
<path d="M60.6584 39.1462H63.0974V41.5852H60.6584V39.1462Z" fill="black"/>
<path d="M65.5365 39.1462H67.9755V41.5852H65.5365V39.1462Z" fill="black"/>
<path d="M80.1706 39.1462H82.6096V41.5852H80.1706V39.1462Z" fill="black"/>
<path d="M82.6096 39.1462H85.0487V41.5852H82.6096V39.1462Z" fill="black"/>
<path d="M85.0487 39.1462H87.4877V41.5852H85.0487V39.1462Z" fill="black"/>
<path d="M87.4877 39.1462H89.9267V41.5852H87.4877V39.1462Z" fill="black"/>
<path d="M92.3657 39.1462H94.8048V41.5852H92.3657V39.1462Z" fill="black"/>
<path d="M97.2438 39.1462H99.6828V41.5852H97.2438V39.1462Z" fill="black"/>
<path d="M99.6828 39.1462H102.122V41.5852H99.6828V39.1462Z" fill="black"/>
<path d="M11.8779 41.5852H14.317V44.0243H11.8779V41.5852Z" fill="black"/>
<path d="M19.195 41.5852H21.634V44.0243H19.195V41.5852Z" fill="black"/>
<path d="M21.634 41.5852H24.0731V44.0243H21.634V41.5852Z" fill="black"/>
<path d="M24.0731 41.5852H26.5121V44.0243H24.0731V41.5852Z" fill="black"/>
<path d="M31.3901 41.5852H33.8291V44.0243H31.3901V41.5852Z" fill="black"/>
<path d="M33.8291 41.5852H36.2682V44.0243H33.8291V41.5852Z" fill="black"/>
<path d="M41.1462 41.5852H43.5852V44.0243H41.1462V41.5852Z" fill="black"/>
<path d="M48.4633 41.5852H50.9023V44.0243H48.4633V41.5852Z" fill="black"/>
<path d="M50.9023 41.5852H53.3413V44.0243H50.9023V41.5852Z" fill="black"/>
<path d="M53.3413 41.5852H55.7804V44.0243H53.3413V41.5852Z" fill="black"/>
<path d="M55.7804 41.5852H58.2194V44.0243H55.7804V41.5852Z" fill="black"/>
<path d="M63.0974 41.5852H65.5365V44.0243H63.0974V41.5852Z" fill="black"/>
<path d="M67.9755 41.5852H70.4145V44.0243H67.9755V41.5852Z" fill="black"/>
<path d="M72.8535 41.5852H75.2926V44.0243H72.8535V41.5852Z" fill="black"/>
<path d="M75.2926 41.5852H77.7316V44.0243H75.2926V41.5852Z" fill="black"/>
<path d="M77.7316 41.5852H80.1706V44.0243H77.7316V41.5852Z" fill="black"/>
<path d="M89.9267 41.5852H92.3657V44.0243H89.9267V41.5852Z" fill="black"/>
<path d="M92.3657 41.5852H94.8048V44.0243H92.3657V41.5852Z" fill="black"/>
<path d="M94.8048 41.5852H97.2438V44.0243H94.8048V41.5852Z" fill="black"/>
<path d="M97.2438 41.5852H99.6828V44.0243H97.2438V41.5852Z" fill="black"/>
<path d="M11.8779 44.0243H14.317V46.4633H11.8779V44.0243Z" fill="black"/>
<path d="M21.634 44.0243H24.0731V46.4633H21.634V44.0243Z" fill="black"/>
<path d="M26.5121 44.0243H28.9511V46.4633H26.5121V44.0243Z" fill="black"/>
<path d="M31.3901 44.0243H33.8291V46.4633H31.3901V44.0243Z" fill="black"/>
<path d="M33.8291 44.0243H36.2682V46.4633H33.8291V44.0243Z" fill="black"/>
<path d="M36.2682 44.0243H38.7072V46.4633H36.2682V44.0243Z" fill="black"/>
<path d="M46.0243 44.0243H48.4633V46.4633H46.0243V44.0243Z" fill="black"/>
<path d="M48.4633 44.0243H50.9023V46.4633H48.4633V44.0243Z" fill="black"/>
<path d="M50.9023 44.0243H53.3413V46.4633H50.9023V44.0243Z" fill="black"/>
<path d="M53.3413 44.0243H55.7804V46.4633H53.3413V44.0243Z" fill="black"/>
<path d="M55.7804 44.0243H58.2194V46.4633H55.7804V44.0243Z" fill="black"/>
<path d="M58.2194 44.0243H60.6584V46.4633H58.2194V44.0243Z" fill="black"/>
<path d="M60.6584 44.0243H63.0974V46.4633H60.6584V44.0243Z" fill="black"/>
<path d="M72.8535 44.0243H75.2926V46.4633H72.8535V44.0243Z" fill="black"/>
<path d="M75.2926 44.0243H77.7316V46.4633H75.2926V44.0243Z" fill="black"/>
<path d="M77.7316 44.0243H80.1706V46.4633H77.7316V44.0243Z" fill="black"/>
<path d="M82.6096 44.0243H85.0487V46.4633H82.6096V44.0243Z" fill="black"/>
<path d="M89.9267 44.0243H92.3657V46.4633H89.9267V44.0243Z" fill="black"/>
<path d="M97.2438 44.0243H99.6828V46.4633H97.2438V44.0243Z" fill="black"/>
<path d="M99.6828 44.0243H102.122V46.4633H99.6828V44.0243Z" fill="black"/>
<path d="M11.8779 46.4633H14.317V48.9023H11.8779V46.4633Z" fill="black"/>
<path d="M14.317 46.4633H16.756V48.9023H14.317V46.4633Z" fill="black"/>
<path d="M19.195 46.4633H21.634V48.9023H19.195V46.4633Z" fill="black"/>
<path d="M24.0731 46.4633H26.5121V48.9023H24.0731V46.4633Z" fill="black"/>
<path d="M28.9511 46.4633H31.3901V48.9023H28.9511V46.4633Z" fill="black"/>
<path d="M41.1462 46.4633H43.5852V48.9023H41.1462V46.4633Z" fill="black"/>
<path d="M48.4633 46.4633H50.9023V48.9023H48.4633V46.4633Z" fill="black"/>
<path d="M55.7804 46.4633H58.2194V48.9023H55.7804V46.4633Z" fill="black"/>
<path d="M60.6584 46.4633H63.0974V48.9023H60.6584V46.4633Z" fill="black"/>
<path d="M65.5365 46.4633H67.9755V48.9023H65.5365V46.4633Z" fill="black"/>
<path d="M75.2926 46.4633H77.7316V48.9023H75.2926V46.4633Z" fill="black"/>
<path d="M87.4877 46.4633H89.9267V48.9023H87.4877V46.4633Z" fill="black"/>
<path d="M89.9267 46.4633H92.3657V48.9023H89.9267V46.4633Z" fill="black"/>
<path d="M94.8048 46.4633H97.2438V48.9023H94.8048V46.4633Z" fill="black"/>
<path d="M99.6828 46.4633H102.122V48.9023H99.6828V46.4633Z" fill="black"/>
<path d="M14.317 48.9023H16.756V51.3413H14.317V48.9023Z" fill="black"/>
<path d="M21.634 48.9023H24.0731V51.3413H21.634V48.9023Z" fill="black"/>
<path d="M24.0731 48.9023H26.5121V51.3413H24.0731V48.9023Z" fill="black"/>
<path d="M26.5121 48.9023H28.9511V51.3413H26.5121V48.9023Z" fill="black"/>
<path d="M31.3901 48.9023H33.8291V51.3413H31.3901V48.9023Z" fill="black"/>
<path d="M36.2682 48.9023H38.7072V51.3413H36.2682V48.9023Z" fill="black"/>
<path d="M38.7072 48.9023H41.1462V51.3413H38.7072V48.9023Z" fill="black"/>
<path d="M41.1462 48.9023H43.5852V51.3413H41.1462V48.9023Z" fill="black"/>
<path d="M43.5852 48.9023H46.0243V51.3413H43.5852V48.9023Z" fill="black"/>
<path d="M60.6584 48.9023H63.0974V51.3413H60.6584V48.9023Z" fill="black"/>
<path d="M65.5365 48.9023H67.9755V51.3413H65.5365V48.9023Z" fill="black"/>
<path d="M67.9755 48.9023H70.4145V51.3413H67.9755V48.9023Z" fill="black"/>
<path d="M72.8535 48.9023H75.2926V51.3413H72.8535V48.9023Z" fill="black"/>
<path d="M77.7316 48.9023H80.1706V51.3413H77.7316V48.9023Z" fill="black"/>
<path d="M85.0487 48.9023H87.4877V51.3413H85.0487V48.9023Z" fill="black"/>
<path d="M92.3657 48.9023H94.8048V51.3413H92.3657V48.9023Z" fill="black"/>
<path d="M94.8048 48.9023H97.2438V51.3413H94.8048V48.9023Z" fill="black"/>
<path d="M97.2438 48.9023H99.6828V51.3413H97.2438V48.9023Z" fill="black"/>
<path d="M99.6828 48.9023H102.122V51.3413H99.6828V48.9023Z" fill="black"/>
<path d="M14.317 51.3413H16.756V53.7804H14.317V51.3413Z" fill="black"/>
<path d="M16.756 51.3413H19.195V53.7804H16.756V51.3413Z" fill="black"/>
<path d="M21.634 51.3413H24.0731V53.7804H21.634V51.3413Z" fill="black"/>
<path d="M24.0731 51.3413H26.5121V53.7804H24.0731V51.3413Z" fill="black"/>
<path d="M28.9511 51.3413H31.3901V53.7804H28.9511V51.3413Z" fill="black"/>
<path d="M31.3901 51.3413H33.8291V53.7804H31.3901V51.3413Z" fill="black"/>
<path d="M33.8291 51.3413H36.2682V53.7804H33.8291V51.3413Z" fill="black"/>
<path d="M36.2682 51.3413H38.7072V53.7804H36.2682V51.3413Z" fill="black"/>
<path d="M38.7072 51.3413H41.1462V53.7804H38.7072V51.3413Z" fill="black"/>
<path d="M46.0243 51.3413H48.4633V53.7804H46.0243V51.3413Z" fill="black"/>
<path d="M48.4633 51.3413H50.9023V53.7804H48.4633V51.3413Z" fill="black"/>
<path d="M53.3413 51.3413H55.7804V53.7804H53.3413V51.3413Z" fill="black"/>
<path d="M55.7804 51.3413H58.2194V53.7804H55.7804V51.3413Z" fill="black"/>
<path d="M58.2194 51.3413H60.6584V53.7804H58.2194V51.3413Z" fill="black"/>
<path d="M60.6584 51.3413H63.0974V53.7804H60.6584V51.3413Z" fill="black"/>
<path d="M65.5365 51.3413H67.9755V53.7804H65.5365V51.3413Z" fill="black"/>
<path d="M77.7316 51.3413H80.1706V53.7804H77.7316V51.3413Z" fill="black"/>
<path d="M82.6096 51.3413H85.0487V53.7804H82.6096V51.3413Z" fill="black"/>
<path d="M87.4877 51.3413H89.9267V53.7804H87.4877V51.3413Z" fill="black"/>
<path d="M92.3657 51.3413H94.8048V53.7804H92.3657V51.3413Z" fill="black"/>
<path d="M11.8779 53.7804H14.317V56.2194H11.8779V53.7804Z" fill="black"/>
<path d="M14.317 53.7804H16.756V56.2194H14.317V53.7804Z" fill="black"/>
<path d="M16.756 53.7804H19.195V56.2194H16.756V53.7804Z" fill="black"/>
<path d="M19.195 53.7804H21.634V56.2194H19.195V53.7804Z" fill="black"/>
<path d="M26.5121 53.7804H28.9511V56.2194H26.5121V53.7804Z" fill="black"/>
<path d="M31.3901 53.7804H33.8291V56.2194H31.3901V53.7804Z" fill="black"/>
<path d="M33.8291 53.7804H36.2682V56.2194H33.8291V53.7804Z" fill="black"/>
<path d="M41.1462 53.7804H43.5852V56.2194H41.1462V53.7804Z" fill="black"/>
<path d="M46.0243 53.7804H48.4633V56.2194H46.0243V53.7804Z" fill="black"/>
<path d="M48.4633 53.7804H50.9023V56.2194H48.4633V53.7804Z" fill="black"/>
<path d="M53.3413 53.7804H55.7804V56.2194H53.3413V53.7804Z" fill="black"/>
<path d="M55.7804 53.7804H58.2194V56.2194H55.7804V53.7804Z" fill="black"/>
<path d="M58.2194 53.7804H60.6584V56.2194H58.2194V53.7804Z" fill="black"/>
<path d="M60.6584 53.7804H63.0974V56.2194H60.6584V53.7804Z" fill="black"/>
<path d="M63.0974 53.7804H65.5365V56.2194H63.0974V53.7804Z" fill="black"/>
<path d="M65.5365 53.7804H67.9755V56.2194H65.5365V53.7804Z" fill="black"/>
<path d="M67.9755 53.7804H70.4145V56.2194H67.9755V53.7804Z" fill="black"/>
<path d="M72.8535 53.7804H75.2926V56.2194H72.8535V53.7804Z" fill="black"/>
<path d="M77.7316 53.7804H80.1706V56.2194H77.7316V53.7804Z" fill="black"/>
<path d="M80.1706 53.7804H82.6096V56.2194H80.1706V53.7804Z" fill="black"/>
<path d="M82.6096 53.7804H85.0487V56.2194H82.6096V53.7804Z" fill="black"/>
<path d="M85.0487 53.7804H87.4877V56.2194H85.0487V53.7804Z" fill="black"/>
<path d="M99.6828 53.7804H102.122V56.2194H99.6828V53.7804Z" fill="black"/>
<path d="M11.8779 56.2194H14.317V58.6584H11.8779V56.2194Z" fill="black"/>
<path d="M14.317 56.2194H16.756V58.6584H14.317V56.2194Z" fill="black"/>
<path d="M24.0731 56.2194H26.5121V58.6584H24.0731V56.2194Z" fill="black"/>
<path d="M28.9511 56.2194H31.3901V58.6584H28.9511V56.2194Z" fill="black"/>
<path d="M31.3901 56.2194H33.8291V58.6584H31.3901V56.2194Z" fill="black"/>
<path d="M36.2682 56.2194H38.7072V58.6584H36.2682V56.2194Z" fill="black"/>
<path d="M38.7072 56.2194H41.1462V58.6584H38.7072V56.2194Z" fill="black"/>
<path d="M43.5852 56.2194H46.0243V58.6584H43.5852V56.2194Z" fill="black"/>
<path d="M48.4633 56.2194H50.9023V58.6584H48.4633V56.2194Z" fill="black"/>
<path d="M50.9023 56.2194H53.3413V58.6584H50.9023V56.2194Z" fill="black"/>
<path d="M65.5365 56.2194H67.9755V58.6584H65.5365V56.2194Z" fill="black"/>
<path d="M72.8535 56.2194H75.2926V58.6584H72.8535V56.2194Z" fill="black"/>
<path d="M77.7316 56.2194H80.1706V58.6584H77.7316V56.2194Z" fill="black"/>
<path d="M82.6096 56.2194H85.0487V58.6584H82.6096V56.2194Z" fill="black"/>
<path d="M92.3657 56.2194H94.8048V58.6584H92.3657V56.2194Z" fill="black"/>
<path d="M99.6828 56.2194H102.122V58.6584H99.6828V56.2194Z" fill="black"/>
<path d="M19.195 58.6584H21.634V61.0974H19.195V58.6584Z" fill="black"/>
<path d="M24.0731 58.6584H26.5121V61.0974H24.0731V58.6584Z" fill="black"/>
<path d="M26.5121 58.6584H28.9511V61.0974H26.5121V58.6584Z" fill="black"/>
<path d="M31.3901 58.6584H33.8291V61.0974H31.3901V58.6584Z" fill="black"/>
<path d="M38.7072 58.6584H41.1462V61.0974H38.7072V58.6584Z" fill="black"/>
<path d="M46.0243 58.6584H48.4633V61.0974H46.0243V58.6584Z" fill="black"/>
<path d="M48.4633 58.6584H50.9023V61.0974H48.4633V58.6584Z" fill="black"/>
<path d="M50.9023 58.6584H53.3413V61.0974H50.9023V58.6584Z" fill="black"/>
<path d="M53.3413 58.6584H55.7804V61.0974H53.3413V58.6584Z" fill="black"/>
<path d="M55.7804 58.6584H58.2194V61.0974H55.7804V58.6584Z" fill="black"/>
<path d="M67.9755 58.6584H70.4145V61.0974H67.9755V58.6584Z" fill="black"/>
<path d="M75.2926 58.6584H77.7316V61.0974H75.2926V58.6584Z" fill="black"/>
<path d="M77.7316 58.6584H80.1706V61.0974H77.7316V58.6584Z" fill="black"/>
<path d="M82.6096 58.6584H85.0487V61.0974H82.6096V58.6584Z" fill="black"/>
<path d="M85.0487 58.6584H87.4877V61.0974H85.0487V58.6584Z" fill="black"/>
<path d="M87.4877 58.6584H89.9267V61.0974H87.4877V58.6584Z" fill="black"/>
<path d="M89.9267 58.6584H92.3657V61.0974H89.9267V58.6584Z" fill="black"/>
<path d="M97.2438 58.6584H99.6828V61.0974H97.2438V58.6584Z" fill="black"/>
<path d="M99.6828 58.6584H102.122V61.0974H99.6828V58.6584Z" fill="black"/>
<path d="M14.317 61.0974H16.756V63.5365H14.317V61.0974Z" fill="black"/>
<path d="M24.0731 61.0974H26.5121V63.5365H24.0731V61.0974Z" fill="black"/>
<path d="M28.9511 61.0974H31.3901V63.5365H28.9511V61.0974Z" fill="black"/>
<path d="M31.3901 61.0974H33.8291V63.5365H31.3901V61.0974Z" fill="black"/>
<path d="M36.2682 61.0974H38.7072V63.5365H36.2682V61.0974Z" fill="black"/>
<path d="M41.1462 61.0974H43.5852V63.5365H41.1462V61.0974Z" fill="black"/>
<path d="M43.5852 61.0974H46.0243V63.5365H43.5852V61.0974Z" fill="black"/>
<path d="M46.0243 61.0974H48.4633V63.5365H46.0243V61.0974Z" fill="black"/>
<path d="M48.4633 61.0974H50.9023V63.5365H48.4633V61.0974Z" fill="black"/>
<path d="M55.7804 61.0974H58.2194V63.5365H55.7804V61.0974Z" fill="black"/>
<path d="M58.2194 61.0974H60.6584V63.5365H58.2194V61.0974Z" fill="black"/>
<path d="M60.6584 61.0974H63.0974V63.5365H60.6584V61.0974Z" fill="black"/>
<path d="M65.5365 61.0974H67.9755V63.5365H65.5365V61.0974Z" fill="black"/>
<path d="M67.9755 61.0974H70.4145V63.5365H67.9755V61.0974Z" fill="black"/>
<path d="M70.4145 61.0974H72.8535V63.5365H70.4145V61.0974Z" fill="black"/>
<path d="M77.7316 61.0974H80.1706V63.5365H77.7316V61.0974Z" fill="black"/>
<path d="M87.4877 61.0974H89.9267V63.5365H87.4877V61.0974Z" fill="black"/>
<path d="M89.9267 61.0974H92.3657V63.5365H89.9267V61.0974Z" fill="black"/>
<path d="M94.8048 61.0974H97.2438V63.5365H94.8048V61.0974Z" fill="black"/>
<path d="M97.2438 61.0974H99.6828V63.5365H97.2438V61.0974Z" fill="black"/>
<path d="M11.8779 63.5365H14.317V65.9755H11.8779V63.5365Z" fill="black"/>
<path d="M14.317 63.5365H16.756V65.9755H14.317V63.5365Z" fill="black"/>
<path d="M21.634 63.5365H24.0731V65.9755H21.634V63.5365Z" fill="black"/>
<path d="M26.5121 63.5365H28.9511V65.9755H26.5121V63.5365Z" fill="black"/>
<path d="M31.3901 63.5365H33.8291V65.9755H31.3901V63.5365Z" fill="black"/>
<path d="M33.8291 63.5365H36.2682V65.9755H33.8291V63.5365Z" fill="black"/>
<path d="M38.7072 63.5365H41.1462V65.9755H38.7072V63.5365Z" fill="black"/>
<path d="M46.0243 63.5365H48.4633V65.9755H46.0243V63.5365Z" fill="black"/>
<path d="M48.4633 63.5365H50.9023V65.9755H48.4633V63.5365Z" fill="black"/>
<path d="M50.9023 63.5365H53.3413V65.9755H50.9023V63.5365Z" fill="black"/>
<path d="M65.5365 63.5365H67.9755V65.9755H65.5365V63.5365Z" fill="black"/>
<path d="M67.9755 63.5365H70.4145V65.9755H67.9755V63.5365Z" fill="black"/>
<path d="M70.4145 63.5365H72.8535V65.9755H70.4145V63.5365Z" fill="black"/>
<path d="M77.7316 63.5365H80.1706V65.9755H77.7316V63.5365Z" fill="black"/>
<path d="M80.1706 63.5365H82.6096V65.9755H80.1706V63.5365Z" fill="black"/>
<path d="M87.4877 63.5365H89.9267V65.9755H87.4877V63.5365Z" fill="black"/>
<path d="M92.3657 63.5365H94.8048V65.9755H92.3657V63.5365Z" fill="black"/>
<path d="M99.6828 63.5365H102.122V65.9755H99.6828V63.5365Z" fill="black"/>
<path d="M16.756 65.9755H19.195V68.4145H16.756V65.9755Z" fill="black"/>
<path d="M19.195 65.9755H21.634V68.4145H19.195V65.9755Z" fill="black"/>
<path d="M21.634 65.9755H24.0731V68.4145H21.634V65.9755Z" fill="black"/>
<path d="M24.0731 65.9755H26.5121V68.4145H24.0731V65.9755Z" fill="black"/>
<path d="M31.3901 65.9755H33.8291V68.4145H31.3901V65.9755Z" fill="black"/>
<path d="M38.7072 65.9755H41.1462V68.4145H38.7072V65.9755Z" fill="black"/>
<path d="M41.1462 65.9755H43.5852V68.4145H41.1462V65.9755Z" fill="black"/>
<path d="M50.9023 65.9755H53.3413V68.4145H50.9023V65.9755Z" fill="black"/>
<path d="M53.3413 65.9755H55.7804V68.4145H53.3413V65.9755Z" fill="black"/>
<path d="M55.7804 65.9755H58.2194V68.4145H55.7804V65.9755Z" fill="black"/>
<path d="M67.9755 65.9755H70.4145V68.4145H67.9755V65.9755Z" fill="black"/>
<path d="M77.7316 65.9755H80.1706V68.4145H77.7316V65.9755Z" fill="black"/>
<path d="M87.4877 65.9755H89.9267V68.4145H87.4877V65.9755Z" fill="black"/>
<path d="M89.9267 65.9755H92.3657V68.4145H89.9267V65.9755Z" fill="black"/>
<path d="M92.3657 65.9755H94.8048V68.4145H92.3657V65.9755Z" fill="black"/>
<path d="M94.8048 65.9755H97.2438V68.4145H94.8048V65.9755Z" fill="black"/>
<path d="M97.2438 65.9755H99.6828V68.4145H97.2438V65.9755Z" fill="black"/>
<path d="M99.6828 65.9755H102.122V68.4145H99.6828V65.9755Z" fill="black"/>
<path d="M16.756 68.4145H19.195V70.8535H16.756V68.4145Z" fill="black"/>
<path d="M24.0731 68.4145H26.5121V70.8535H24.0731V68.4145Z" fill="black"/>
<path d="M26.5121 68.4145H28.9511V70.8535H26.5121V68.4145Z" fill="black"/>
<path d="M28.9511 68.4145H31.3901V70.8535H28.9511V68.4145Z" fill="black"/>
<path d="M38.7072 68.4145H41.1462V70.8535H38.7072V68.4145Z" fill="black"/>
<path d="M41.1462 68.4145H43.5852V70.8535H41.1462V68.4145Z" fill="black"/>
<path d="M50.9023 68.4145H53.3413V70.8535H50.9023V68.4145Z" fill="black"/>
<path d="M58.2194 68.4145H60.6584V70.8535H58.2194V68.4145Z" fill="black"/>
<path d="M60.6584 68.4145H63.0974V70.8535H60.6584V68.4145Z" fill="black"/>
<path d="M67.9755 68.4145H70.4145V70.8535H67.9755V68.4145Z" fill="black"/>
<path d="M70.4145 68.4145H72.8535V70.8535H70.4145V68.4145Z" fill="black"/>
<path d="M80.1706 68.4145H82.6096V70.8535H80.1706V68.4145Z" fill="black"/>
<path d="M85.0487 68.4145H87.4877V70.8535H85.0487V68.4145Z" fill="black"/>
<path d="M87.4877 68.4145H89.9267V70.8535H87.4877V68.4145Z" fill="black"/>
<path d="M92.3657 68.4145H94.8048V70.8535H92.3657V68.4145Z" fill="black"/>
<path d="M99.6828 68.4145H102.122V70.8535H99.6828V68.4145Z" fill="black"/>
<path d="M11.8779 70.8535H14.317V73.2926H11.8779V70.8535Z" fill="black"/>
<path d="M14.317 70.8535H16.756V73.2926H14.317V70.8535Z" fill="black"/>
<path d="M24.0731 70.8535H26.5121V73.2926H24.0731V70.8535Z" fill="black"/>
<path d="M28.9511 70.8535H31.3901V73.2926H28.9511V70.8535Z" fill="black"/>
<path d="M31.3901 70.8535H33.8291V73.2926H31.3901V70.8535Z" fill="black"/>
<path d="M36.2682 70.8535H38.7072V73.2926H36.2682V70.8535Z" fill="black"/>
<path d="M43.5852 70.8535H46.0243V73.2926H43.5852V70.8535Z" fill="black"/>
<path d="M46.0243 70.8535H48.4633V73.2926H46.0243V70.8535Z" fill="black"/>
<path d="M48.4633 70.8535H50.9023V73.2926H48.4633V70.8535Z" fill="black"/>
<path d="M50.9023 70.8535H53.3413V73.2926H50.9023V70.8535Z" fill="black"/>
<path d="M65.5365 70.8535H67.9755V73.2926H65.5365V70.8535Z" fill="black"/>
<path d="M67.9755 70.8535H70.4145V73.2926H67.9755V70.8535Z" fill="black"/>
<path d="M72.8535 70.8535H75.2926V73.2926H72.8535V70.8535Z" fill="black"/>
<path d="M75.2926 70.8535H77.7316V73.2926H75.2926V70.8535Z" fill="black"/>
<path d="M77.7316 70.8535H80.1706V73.2926H77.7316V70.8535Z" fill="black"/>
<path d="M80.1706 70.8535H82.6096V73.2926H80.1706V70.8535Z" fill="black"/>
<path d="M89.9267 70.8535H92.3657V73.2926H89.9267V70.8535Z" fill="black"/>
<path d="M92.3657 70.8535H94.8048V73.2926H92.3657V70.8535Z" fill="black"/>
<path d="M94.8048 70.8535H97.2438V73.2926H94.8048V70.8535Z" fill="black"/>
<path d="M97.2438 70.8535H99.6828V73.2926H97.2438V70.8535Z" fill="black"/>
<path d="M11.8779 73.2926H14.317V75.7316H11.8779V73.2926Z" fill="black"/>
<path d="M14.317 73.2926H16.756V75.7316H14.317V73.2926Z" fill="black"/>
<path d="M21.634 73.2926H24.0731V75.7316H21.634V73.2926Z" fill="black"/>
<path d="M26.5121 73.2926H28.9511V75.7316H26.5121V73.2926Z" fill="black"/>
<path d="M28.9511 73.2926H31.3901V75.7316H28.9511V73.2926Z" fill="black"/>
<path d="M36.2682 73.2926H38.7072V75.7316H36.2682V73.2926Z" fill="black"/>
<path d="M38.7072 73.2926H41.1462V75.7316H38.7072V73.2926Z" fill="black"/>
<path d="M41.1462 73.2926H43.5852V75.7316H41.1462V73.2926Z" fill="black"/>
<path d="M43.5852 73.2926H46.0243V75.7316H43.5852V73.2926Z" fill="black"/>
<path d="M48.4633 73.2926H50.9023V75.7316H48.4633V73.2926Z" fill="black"/>
<path d="M55.7804 73.2926H58.2194V75.7316H55.7804V73.2926Z" fill="black"/>
<path d="M58.2194 73.2926H60.6584V75.7316H58.2194V73.2926Z" fill="black"/>
<path d="M65.5365 73.2926H67.9755V75.7316H65.5365V73.2926Z" fill="black"/>
<path d="M72.8535 73.2926H75.2926V75.7316H72.8535V73.2926Z" fill="black"/>
<path d="M77.7316 73.2926H80.1706V75.7316H77.7316V73.2926Z" fill="black"/>
<path d="M80.1706 73.2926H82.6096V75.7316H80.1706V73.2926Z" fill="black"/>
<path d="M82.6096 73.2926H85.0487V75.7316H82.6096V73.2926Z" fill="black"/>
<path d="M89.9267 73.2926H92.3657V75.7316H89.9267V73.2926Z" fill="black"/>
<path d="M92.3657 73.2926H94.8048V75.7316H92.3657V73.2926Z" fill="black"/>
<path d="M94.8048 73.2926H97.2438V75.7316H94.8048V73.2926Z" fill="black"/>
<path d="M97.2438 73.2926H99.6828V75.7316H97.2438V73.2926Z" fill="black"/>
<path d="M99.6828 73.2926H102.122V75.7316H99.6828V73.2926Z" fill="black"/>
<path d="M11.8779 75.7316H14.317V78.1706H11.8779V75.7316Z" fill="black"/>
<path d="M16.756 75.7316H19.195V78.1706H16.756V75.7316Z" fill="black"/>
<path d="M19.195 75.7316H21.634V78.1706H19.195V75.7316Z" fill="black"/>
<path d="M21.634 75.7316H24.0731V78.1706H21.634V75.7316Z" fill="black"/>
<path d="M24.0731 75.7316H26.5121V78.1706H24.0731V75.7316Z" fill="black"/>
<path d="M28.9511 75.7316H31.3901V78.1706H28.9511V75.7316Z" fill="black"/>
<path d="M33.8291 75.7316H36.2682V78.1706H33.8291V75.7316Z" fill="black"/>
<path d="M38.7072 75.7316H41.1462V78.1706H38.7072V75.7316Z" fill="black"/>
<path d="M50.9023 75.7316H53.3413V78.1706H50.9023V75.7316Z" fill="black"/>
<path d="M55.7804 75.7316H58.2194V78.1706H55.7804V75.7316Z" fill="black"/>
<path d="M58.2194 75.7316H60.6584V78.1706H58.2194V75.7316Z" fill="black"/>
<path d="M60.6584 75.7316H63.0974V78.1706H60.6584V75.7316Z" fill="black"/>
<path d="M65.5365 75.7316H67.9755V78.1706H65.5365V75.7316Z" fill="black"/>
<path d="M70.4145 75.7316H72.8535V78.1706H70.4145V75.7316Z" fill="black"/>
<path d="M82.6096 75.7316H85.0487V78.1706H82.6096V75.7316Z" fill="black"/>
<path d="M85.0487 75.7316H87.4877V78.1706H85.0487V75.7316Z" fill="black"/>
<path d="M87.4877 75.7316H89.9267V78.1706H87.4877V75.7316Z" fill="black"/>
<path d="M89.9267 75.7316H92.3657V78.1706H89.9267V75.7316Z" fill="black"/>
<path d="M92.3657 75.7316H94.8048V78.1706H92.3657V75.7316Z" fill="black"/>
<path d="M94.8048 75.7316H97.2438V78.1706H94.8048V75.7316Z" fill="black"/>
<path d="M99.6828 75.7316H102.122V78.1706H99.6828V75.7316Z" fill="black"/>
<path d="M11.8779 78.1706H14.317V80.6096H11.8779V78.1706Z" fill="black"/>
<path d="M19.195 78.1706H21.634V80.6096H19.195V78.1706Z" fill="black"/>
<path d="M24.0731 78.1706H26.5121V80.6096H24.0731V78.1706Z" fill="black"/>
<path d="M26.5121 78.1706H28.9511V80.6096H26.5121V78.1706Z" fill="black"/>
<path d="M28.9511 78.1706H31.3901V80.6096H28.9511V78.1706Z" fill="black"/>
<path d="M33.8291 78.1706H36.2682V80.6096H33.8291V78.1706Z" fill="black"/>
<path d="M36.2682 78.1706H38.7072V80.6096H36.2682V78.1706Z" fill="black"/>
<path d="M43.5852 78.1706H46.0243V80.6096H43.5852V78.1706Z" fill="black"/>
<path d="M48.4633 78.1706H50.9023V80.6096H48.4633V78.1706Z" fill="black"/>
<path d="M58.2194 78.1706H60.6584V80.6096H58.2194V78.1706Z" fill="black"/>
<path d="M60.6584 78.1706H63.0974V80.6096H60.6584V78.1706Z" fill="black"/>
<path d="M65.5365 78.1706H67.9755V80.6096H65.5365V78.1706Z" fill="black"/>
<path d="M70.4145 78.1706H72.8535V80.6096H70.4145V78.1706Z" fill="black"/>
<path d="M72.8535 78.1706H75.2926V80.6096H72.8535V78.1706Z" fill="black"/>
<path d="M77.7316 78.1706H80.1706V80.6096H77.7316V78.1706Z" fill="black"/>
<path d="M80.1706 78.1706H82.6096V80.6096H80.1706V78.1706Z" fill="black"/>
<path d="M82.6096 78.1706H85.0487V80.6096H82.6096V78.1706Z" fill="black"/>
<path d="M85.0487 78.1706H87.4877V80.6096H85.0487V78.1706Z" fill="black"/>
<path d="M87.4877 78.1706H89.9267V80.6096H87.4877V78.1706Z" fill="black"/>
<path d="M89.9267 78.1706H92.3657V80.6096H89.9267V78.1706Z" fill="black"/>
<path d="M92.3657 78.1706H94.8048V80.6096H92.3657V78.1706Z" fill="black"/>
<path d="M94.8048 78.1706H97.2438V80.6096H94.8048V78.1706Z" fill="black"/>
<path d="M97.2438 78.1706H99.6828V80.6096H97.2438V78.1706Z" fill="black"/>
<path d="M31.3901 80.6096H33.8291V83.0487H31.3901V80.6096Z" fill="black"/>
<path d="M38.7072 80.6096H41.1462V83.0487H38.7072V80.6096Z" fill="black"/>
<path d="M41.1462 80.6096H43.5852V83.0487H41.1462V80.6096Z" fill="black"/>
<path d="M46.0243 80.6096H48.4633V83.0487H46.0243V80.6096Z" fill="black"/>
<path d="M48.4633 80.6096H50.9023V83.0487H48.4633V80.6096Z" fill="black"/>
<path d="M53.3413 80.6096H55.7804V83.0487H53.3413V80.6096Z" fill="black"/>
<path d="M55.7804 80.6096H58.2194V83.0487H55.7804V80.6096Z" fill="black"/>
<path d="M58.2194 80.6096H60.6584V83.0487H58.2194V80.6096Z" fill="black"/>
<path d="M60.6584 80.6096H63.0974V83.0487H60.6584V80.6096Z" fill="black"/>
<path d="M63.0974 80.6096H65.5365V83.0487H63.0974V80.6096Z" fill="black"/>
<path d="M65.5365 80.6096H67.9755V83.0487H65.5365V80.6096Z" fill="black"/>
<path d="M72.8535 80.6096H75.2926V83.0487H72.8535V80.6096Z" fill="black"/>
<path d="M77.7316 80.6096H80.1706V83.0487H77.7316V80.6096Z" fill="black"/>
<path d="M80.1706 80.6096H82.6096V83.0487H80.1706V80.6096Z" fill="black"/>
<path d="M89.9267 80.6096H92.3657V83.0487H89.9267V80.6096Z" fill="black"/>
<path d="M94.8048 80.6096H97.2438V83.0487H94.8048V80.6096Z" fill="black"/>
<path d="M97.2438 80.6096H99.6828V83.0487H97.2438V80.6096Z" fill="black"/>
<path d="M11.8779 83.0487H14.317V85.4877H11.8779V83.0487Z" fill="black"/>
<path d="M14.317 83.0487H16.756V85.4877H14.317V83.0487Z" fill="black"/>
<path d="M16.756 83.0487H19.195V85.4877H16.756V83.0487Z" fill="black"/>
<path d="M19.195 83.0487H21.634V85.4877H19.195V83.0487Z" fill="black"/>
<path d="M21.634 83.0487H24.0731V85.4877H21.634V83.0487Z" fill="black"/>
<path d="M24.0731 83.0487H26.5121V85.4877H24.0731V83.0487Z" fill="black"/>
<path d="M26.5121 83.0487H28.9511V85.4877H26.5121V83.0487Z" fill="black"/>
<path d="M33.8291 83.0487H36.2682V85.4877H33.8291V83.0487Z" fill="black"/>
<path d="M38.7072 83.0487H41.1462V85.4877H38.7072V83.0487Z" fill="black"/>
<path d="M46.0243 83.0487H48.4633V85.4877H46.0243V83.0487Z" fill="black"/>
<path d="M48.4633 83.0487H50.9023V85.4877H48.4633V83.0487Z" fill="black"/>
<path d="M50.9023 83.0487H53.3413V85.4877H50.9023V83.0487Z" fill="black"/>
<path d="M55.7804 83.0487H58.2194V85.4877H55.7804V83.0487Z" fill="black"/>
<path d="M58.2194 83.0487H60.6584V85.4877H58.2194V83.0487Z" fill="black"/>
<path d="M60.6584 83.0487H63.0974V85.4877H60.6584V83.0487Z" fill="black"/>
<path d="M67.9755 83.0487H70.4145V85.4877H67.9755V83.0487Z" fill="black"/>
<path d="M72.8535 83.0487H75.2926V85.4877H72.8535V83.0487Z" fill="black"/>
<path d="M75.2926 83.0487H77.7316V85.4877H75.2926V83.0487Z" fill="black"/>
<path d="M80.1706 83.0487H82.6096V85.4877H80.1706V83.0487Z" fill="black"/>
<path d="M85.0487 83.0487H87.4877V85.4877H85.0487V83.0487Z" fill="black"/>
<path d="M89.9267 83.0487H92.3657V85.4877H89.9267V83.0487Z" fill="black"/>
<path d="M94.8048 83.0487H97.2438V85.4877H94.8048V83.0487Z" fill="black"/>
<path d="M99.6828 83.0487H102.122V85.4877H99.6828V83.0487Z" fill="black"/>
<path d="M11.8779 85.4877H14.317V87.9267H11.8779V85.4877Z" fill="black"/>
<path d="M26.5121 85.4877H28.9511V87.9267H26.5121V85.4877Z" fill="black"/>
<path d="M36.2682 85.4877H38.7072V87.9267H36.2682V85.4877Z" fill="black"/>
<path d="M41.1462 85.4877H43.5852V87.9267H41.1462V85.4877Z" fill="black"/>
<path d="M43.5852 85.4877H46.0243V87.9267H43.5852V85.4877Z" fill="black"/>
<path d="M46.0243 85.4877H48.4633V87.9267H46.0243V85.4877Z" fill="black"/>
<path d="M60.6584 85.4877H63.0974V87.9267H60.6584V85.4877Z" fill="black"/>
<path d="M65.5365 85.4877H67.9755V87.9267H65.5365V85.4877Z" fill="black"/>
<path d="M67.9755 85.4877H70.4145V87.9267H67.9755V85.4877Z" fill="black"/>
<path d="M72.8535 85.4877H75.2926V87.9267H72.8535V85.4877Z" fill="black"/>
<path d="M77.7316 85.4877H80.1706V87.9267H77.7316V85.4877Z" fill="black"/>
<path d="M80.1706 85.4877H82.6096V87.9267H80.1706V85.4877Z" fill="black"/>
<path d="M89.9267 85.4877H92.3657V87.9267H89.9267V85.4877Z" fill="black"/>
<path d="M92.3657 85.4877H94.8048V87.9267H92.3657V85.4877Z" fill="black"/>
<path d="M97.2438 85.4877H99.6828V87.9267H97.2438V85.4877Z" fill="black"/>
<path d="M11.8779 87.9267H14.317V90.3657H11.8779V87.9267Z" fill="black"/>
<path d="M16.756 87.9267H19.195V90.3657H16.756V87.9267Z" fill="black"/>
<path d="M19.195 87.9267H21.634V90.3657H19.195V87.9267Z" fill="black"/>
<path d="M21.634 87.9267H24.0731V90.3657H21.634V87.9267Z" fill="black"/>
<path d="M26.5121 87.9267H28.9511V90.3657H26.5121V87.9267Z" fill="black"/>
<path d="M31.3901 87.9267H33.8291V90.3657H31.3901V87.9267Z" fill="black"/>
<path d="M33.8291 87.9267H36.2682V90.3657H33.8291V87.9267Z" fill="black"/>
<path d="M36.2682 87.9267H38.7072V90.3657H36.2682V87.9267Z" fill="black"/>
<path d="M41.1462 87.9267H43.5852V90.3657H41.1462V87.9267Z" fill="black"/>
<path d="M46.0243 87.9267H48.4633V90.3657H46.0243V87.9267Z" fill="black"/>
<path d="M48.4633 87.9267H50.9023V90.3657H48.4633V87.9267Z" fill="black"/>
<path d="M53.3413 87.9267H55.7804V90.3657H53.3413V87.9267Z" fill="black"/>
<path d="M58.2194 87.9267H60.6584V90.3657H58.2194V87.9267Z" fill="black"/>
<path d="M60.6584 87.9267H63.0974V90.3657H60.6584V87.9267Z" fill="black"/>
<path d="M67.9755 87.9267H70.4145V90.3657H67.9755V87.9267Z" fill="black"/>
<path d="M75.2926 87.9267H77.7316V90.3657H75.2926V87.9267Z" fill="black"/>
<path d="M77.7316 87.9267H80.1706V90.3657H77.7316V87.9267Z" fill="black"/>
<path d="M80.1706 87.9267H82.6096V90.3657H80.1706V87.9267Z" fill="black"/>
<path d="M82.6096 87.9267H85.0487V90.3657H82.6096V87.9267Z" fill="black"/>
<path d="M85.0487 87.9267H87.4877V90.3657H85.0487V87.9267Z" fill="black"/>
<path d="M87.4877 87.9267H89.9267V90.3657H87.4877V87.9267Z" fill="black"/>
<path d="M89.9267 87.9267H92.3657V90.3657H89.9267V87.9267Z" fill="black"/>
<path d="M97.2438 87.9267H99.6828V90.3657H97.2438V87.9267Z" fill="black"/>
<path d="M11.8779 90.3657H14.317V92.8048H11.8779V90.3657Z" fill="black"/>
<path d="M16.756 90.3657H19.195V92.8048H16.756V90.3657Z" fill="black"/>
<path d="M19.195 90.3657H21.634V92.8048H19.195V90.3657Z" fill="black"/>
<path d="M21.634 90.3657H24.0731V92.8048H21.634V90.3657Z" fill="black"/>
<path d="M26.5121 90.3657H28.9511V92.8048H26.5121V90.3657Z" fill="black"/>
<path d="M31.3901 90.3657H33.8291V92.8048H31.3901V90.3657Z" fill="black"/>
<path d="M36.2682 90.3657H38.7072V92.8048H36.2682V90.3657Z" fill="black"/>
<path d="M46.0243 90.3657H48.4633V92.8048H46.0243V90.3657Z" fill="black"/>
<path d="M48.4633 90.3657H50.9023V92.8048H48.4633V90.3657Z" fill="black"/>
<path d="M55.7804 90.3657H58.2194V92.8048H55.7804V90.3657Z" fill="black"/>
<path d="M58.2194 90.3657H60.6584V92.8048H58.2194V90.3657Z" fill="black"/>
<path d="M65.5365 90.3657H67.9755V92.8048H65.5365V90.3657Z" fill="black"/>
<path d="M67.9755 90.3657H70.4145V92.8048H67.9755V90.3657Z" fill="black"/>
<path d="M70.4145 90.3657H72.8535V92.8048H70.4145V90.3657Z" fill="black"/>
<path d="M72.8535 90.3657H75.2926V92.8048H72.8535V90.3657Z" fill="black"/>
<path d="M75.2926 90.3657H77.7316V92.8048H75.2926V90.3657Z" fill="black"/>
<path d="M77.7316 90.3657H80.1706V92.8048H77.7316V90.3657Z" fill="black"/>
<path d="M85.0487 90.3657H87.4877V92.8048H85.0487V90.3657Z" fill="black"/>
<path d="M97.2438 90.3657H99.6828V92.8048H97.2438V90.3657Z" fill="black"/>
<path d="M99.6828 90.3657H102.122V92.8048H99.6828V90.3657Z" fill="black"/>
<path d="M11.8779 92.8048H14.317V95.2438H11.8779V92.8048Z" fill="black"/>
<path d="M16.756 92.8048H19.195V95.2438H16.756V92.8048Z" fill="black"/>
<path d="M19.195 92.8048H21.634V95.2438H19.195V92.8048Z" fill="black"/>
<path d="M21.634 92.8048H24.0731V95.2438H21.634V92.8048Z" fill="black"/>
<path d="M26.5121 92.8048H28.9511V95.2438H26.5121V92.8048Z" fill="black"/>
<path d="M36.2682 92.8048H38.7072V95.2438H36.2682V92.8048Z" fill="black"/>
<path d="M41.1462 92.8048H43.5852V95.2438H41.1462V92.8048Z" fill="black"/>
<path d="M48.4633 92.8048H50.9023V95.2438H48.4633V92.8048Z" fill="black"/>
<path d="M50.9023 92.8048H53.3413V95.2438H50.9023V92.8048Z" fill="black"/>
<path d="M53.3413 92.8048H55.7804V95.2438H53.3413V92.8048Z" fill="black"/>
<path d="M55.7804 92.8048H58.2194V95.2438H55.7804V92.8048Z" fill="black"/>
<path d="M67.9755 92.8048H70.4145V95.2438H67.9755V92.8048Z" fill="black"/>
<path d="M77.7316 92.8048H80.1706V95.2438H77.7316V92.8048Z" fill="black"/>
<path d="M82.6096 92.8048H85.0487V95.2438H82.6096V92.8048Z" fill="black"/>
<path d="M87.4877 92.8048H89.9267V95.2438H87.4877V92.8048Z" fill="black"/>
<path d="M89.9267 92.8048H92.3657V95.2438H89.9267V92.8048Z" fill="black"/>
<path d="M99.6828 92.8048H102.122V95.2438H99.6828V92.8048Z" fill="black"/>
<path d="M11.8779 95.2438H14.317V97.6828H11.8779V95.2438Z" fill="black"/>
<path d="M26.5121 95.2438H28.9511V97.6828H26.5121V95.2438Z" fill="black"/>
<path d="M31.3901 95.2438H33.8291V97.6828H31.3901V95.2438Z" fill="black"/>
<path d="M33.8291 95.2438H36.2682V97.6828H33.8291V95.2438Z" fill="black"/>
<path d="M46.0243 95.2438H48.4633V97.6828H46.0243V95.2438Z" fill="black"/>
<path d="M53.3413 95.2438H55.7804V97.6828H53.3413V95.2438Z" fill="black"/>
<path d="M65.5365 95.2438H67.9755V97.6828H65.5365V95.2438Z" fill="black"/>
<path d="M70.4145 95.2438H72.8535V97.6828H70.4145V95.2438Z" fill="black"/>
<path d="M77.7316 95.2438H80.1706V97.6828H77.7316V95.2438Z" fill="black"/>
<path d="M89.9267 95.2438H92.3657V97.6828H89.9267V95.2438Z" fill="black"/>
<path d="M94.8048 95.2438H97.2438V97.6828H94.8048V95.2438Z" fill="black"/>
<path d="M97.2438 95.2438H99.6828V97.6828H97.2438V95.2438Z" fill="black"/>
<path d="M99.6828 95.2438H102.122V97.6828H99.6828V95.2438Z" fill="black"/>
<path d="M11.8779 97.6828H14.317V100.122H11.8779V97.6828Z" fill="black"/>
<path d="M14.317 97.6828H16.756V100.122H14.317V97.6828Z" fill="black"/>
<path d="M16.756 97.6828H19.195V100.122H16.756V97.6828Z" fill="black"/>
<path d="M19.195 97.6828H21.634V100.122H19.195V97.6828Z" fill="black"/>
<path d="M21.634 97.6828H24.0731V100.122H21.634V97.6828Z" fill="black"/>
<path d="M24.0731 97.6828H26.5121V100.122H24.0731V97.6828Z" fill="black"/>
<path d="M26.5121 97.6828H28.9511V100.122H26.5121V97.6828Z" fill="black"/>
<path d="M31.3901 97.6828H33.8291V100.122H31.3901V97.6828Z" fill="black"/>
<path d="M36.2682 97.6828H38.7072V100.122H36.2682V97.6828Z" fill="black"/>
<path d="M41.1462 97.6828H43.5852V100.122H41.1462V97.6828Z" fill="black"/>
<path d="M43.5852 97.6828H46.0243V100.122H43.5852V97.6828Z" fill="black"/>
<path d="M46.0243 97.6828H48.4633V100.122H46.0243V97.6828Z" fill="black"/>
<path d="M50.9023 97.6828H53.3413V100.122H50.9023V97.6828Z" fill="black"/>
<path d="M60.6584 97.6828H63.0974V100.122H60.6584V97.6828Z" fill="black"/>
<path d="M67.9755 97.6828H70.4145V100.122H67.9755V97.6828Z" fill="black"/>
<path d="M80.1706 97.6828H82.6096V100.122H80.1706V97.6828Z" fill="black"/>
<path d="M92.3657 97.6828H94.8048V100.122H92.3657V97.6828Z" fill="black"/>
<path d="M99.6828 97.6828H102.122V100.122H99.6828V97.6828Z" fill="black"/>
<path d="M14.317 9.87793H11.8779V12.317M14.317 9.87793V12.317M14.317 9.87793H16.756M14.317 12.317H11.8779M14.317 12.317H16.756M14.317 12.317V14.756M11.8779 12.317V14.756M16.756 9.87793V12.317M16.756 9.87793H19.195M16.756 12.317H19.195M19.195 9.87793V12.317M19.195 9.87793H21.634M19.195 12.317H21.634M21.634 9.87793V12.317M21.634 9.87793H24.0731M21.634 12.317H24.0731M24.0731 9.87793V12.317M24.0731 9.87793H26.5121M24.0731 12.317H26.5121M26.5121 9.87793V12.317M26.5121 9.87793H28.9511V12.317M26.5121 12.317H28.9511M26.5121 12.317V14.756M28.9511 12.317V14.756M33.8291 9.87793H31.3901V12.317H33.8291M33.8291 9.87793V12.317M33.8291 9.87793H36.2682M33.8291 12.317H36.2682M36.2682 9.87793V12.317M36.2682 9.87793H38.7072M36.2682 12.317H38.7072M38.7072 9.87793V12.317M38.7072 9.87793H41.1462V12.317M38.7072 12.317H41.1462M38.7072 12.317V14.756M41.1462 12.317V14.756M41.1462 12.317H43.5852M43.5852 12.317H46.0243V9.87793H43.5852V12.317ZM43.5852 12.317V14.756M55.7804 9.87793H53.3413V12.317M55.7804 9.87793V12.317M55.7804 9.87793H58.2194V12.317M55.7804 12.317H53.3413M55.7804 12.317H58.2194M55.7804 12.317V14.756M53.3413 12.317H50.9023V14.756M53.3413 12.317V14.756M58.2194 12.317V14.756M58.2194 12.317H60.6584V14.756M75.2926 12.317V9.87793H72.8535V12.317M75.2926 12.317H72.8535M75.2926 12.317V14.756M75.2926 12.317H77.7316V14.756M72.8535 12.317V14.756M87.4877 9.87793H85.0487V12.317M87.4877 9.87793V12.317M87.4877 9.87793H89.9267M87.4877 12.317H85.0487M87.4877 12.317H89.9267M87.4877 12.317V14.756M85.0487 12.317V14.756M89.9267 9.87793V12.317M89.9267 9.87793H92.3657M89.9267 12.317H92.3657M92.3657 9.87793V12.317M92.3657 9.87793H94.8048M92.3657 12.317H94.8048M94.8048 9.87793V12.317M94.8048 9.87793H97.2438M94.8048 12.317H97.2438M97.2438 9.87793V12.317M97.2438 9.87793H99.6828M97.2438 12.317H99.6828M99.6828 9.87793V12.317M99.6828 9.87793H102.122V12.317M99.6828 12.317H102.122M99.6828 12.317V14.756M102.122 12.317V14.756M14.317 14.756H11.8779M14.317 14.756V17.195M11.8779 14.756V17.195M28.9511 14.756H26.5121M28.9511 14.756V17.195M26.5121 14.756V17.195M41.1462 14.756H38.7072M41.1462 14.756H43.5852M41.1462 14.756V17.195M38.7072 14.756V17.195M43.5852 14.756H46.0243M43.5852 14.756V17.195M53.3413 14.756H50.9023M53.3413 14.756H55.7804M50.9023 14.756H48.4633M50.9023 14.756V17.195M55.7804 14.756H58.2194M55.7804 14.756V17.195M58.2194 14.756H60.6584M58.2194 14.756V17.195M60.6584 14.756H63.0974M60.6584 14.756V17.195M65.5365 14.756V12.317H63.0974V14.756M65.5365 14.756H63.0974M65.5365 14.756V17.195M65.5365 14.756H67.9755V17.195H65.5365M63.0974 14.756V17.195M75.2926 14.756H72.8535M75.2926 14.756H77.7316M75.2926 14.756V17.195M72.8535 14.756V17.195M77.7316 14.756H80.1706M77.7316 14.756V17.195H80.1706M87.4877 14.756H85.0487M87.4877 14.756V17.195M85.0487 14.756V17.195M102.122 14.756H99.6828M102.122 14.756V17.195M99.6828 14.756V17.195M14.317 17.195H11.8779M14.317 17.195V19.634M11.8779 17.195V19.634M19.195 14.756H16.756V17.195M19.195 14.756V17.195M19.195 14.756H21.634M19.195 17.195H16.756M19.195 17.195H21.634M19.195 17.195V19.634M16.756 17.195V19.634M21.634 14.756V17.195M21.634 14.756H24.0731V17.195M21.634 17.195H24.0731M21.634 17.195V19.634M24.0731 17.195V19.634M28.9511 17.195H26.5121M28.9511 17.195V19.634M26.5121 17.195V19.634M36.2682 17.195V14.756H33.8291V17.195H36.2682ZM36.2682 17.195H38.7072M36.2682 17.195V19.634M41.1462 17.195H38.7072M41.1462 17.195V19.634M38.7072 17.195V19.634M46.0243 14.756V17.195M46.0243 14.756H48.4633M46.0243 17.195H43.5852M46.0243 17.195H48.4633M46.0243 17.195V19.634M43.5852 17.195V19.634M48.4633 14.756V17.195M48.4633 17.195H50.9023M48.4633 17.195V19.634M50.9023 17.195V19.634H48.4633M58.2194 17.195H55.7804M58.2194 17.195H60.6584M58.2194 17.195V19.634M55.7804 17.195H53.3413V19.634H55.7804M55.7804 17.195V19.634M63.0974 17.195H60.6584M63.0974 17.195H65.5365M63.0974 17.195V19.634M60.6584 17.195V19.634M65.5365 17.195V19.634M75.2926 17.195H72.8535M75.2926 17.195V19.634H72.8535V17.195M80.1706 14.756V17.195M80.1706 14.756H82.6096V17.195H80.1706M87.4877 17.195H85.0487M87.4877 17.195V19.634M85.0487 17.195V19.634M92.3657 14.756H89.9267V17.195M92.3657 14.756V17.195M92.3657 14.756H94.8048M92.3657 17.195H89.9267M92.3657 17.195H94.8048M92.3657 17.195V19.634M89.9267 17.195V19.634M94.8048 14.756V17.195M94.8048 14.756H97.2438V17.195M94.8048 17.195H97.2438M94.8048 17.195V19.634M97.2438 17.195V19.634M102.122 17.195H99.6828M102.122 17.195V19.634M99.6828 17.195V19.634M14.317 19.634H11.8779M14.317 19.634V22.0731M11.8779 19.634V22.0731M19.195 19.634H16.756M19.195 19.634H21.634M19.195 19.634V22.0731M16.756 19.634V22.0731H19.195M21.634 19.634H24.0731M21.634 19.634V22.0731M24.0731 19.634V22.0731H21.634M28.9511 19.634H26.5121M28.9511 19.634V22.0731M26.5121 19.634V22.0731M38.7072 19.634H36.2682M38.7072 19.634H41.1462M38.7072 19.634V22.0731M36.2682 19.634V22.0731M41.1462 19.634V22.0731M41.1462 19.634H43.5852M46.0243 19.634H43.5852M46.0243 19.634H48.4633M46.0243 19.634V22.0731M43.5852 19.634V22.0731H41.1462M48.4633 19.634V22.0731M55.7804 19.634H58.2194M55.7804 19.634V22.0731M60.6584 19.634H58.2194M60.6584 19.634H63.0974M60.6584 19.634V22.0731H58.2194M58.2194 19.634V22.0731M63.0974 19.634H65.5365M63.0974 19.634V22.0731H65.5365V19.634M87.4877 19.634H85.0487M87.4877 19.634V22.0731M85.0487 19.634V22.0731M92.3657 19.634H89.9267M92.3657 19.634H94.8048M92.3657 19.634V22.0731M89.9267 19.634V22.0731H92.3657M94.8048 19.634H97.2438M94.8048 19.634V22.0731M97.2438 19.634V22.0731H94.8048M102.122 19.634H99.6828M102.122 19.634V22.0731M99.6828 19.634V22.0731M14.317 22.0731H11.8779M14.317 22.0731V24.5121M11.8779 22.0731V24.5121M19.195 22.0731H21.634M28.9511 22.0731H26.5121M28.9511 22.0731V24.5121M26.5121 22.0731V24.5121M38.7072 22.0731H36.2682M38.7072 22.0731H41.1462M38.7072 22.0731V24.5121M36.2682 22.0731H33.8291V24.5121M36.2682 22.0731V24.5121M41.1462 22.0731V24.5121M48.4633 22.0731H46.0243M48.4633 22.0731V24.5121M46.0243 22.0731V24.5121M58.2194 22.0731H55.7804M58.2194 22.0731V24.5121M55.7804 22.0731H53.3413M55.7804 22.0731V24.5121M87.4877 22.0731H85.0487M87.4877 22.0731V24.5121M85.0487 22.0731V24.5121M92.3657 22.0731H94.8048M102.122 22.0731H99.6828M102.122 22.0731V24.5121M99.6828 22.0731V24.5121M14.317 24.5121H11.8779M14.317 24.5121V26.9511M14.317 24.5121H16.756M11.8779 24.5121V26.9511H14.317M28.9511 24.5121H26.5121M28.9511 24.5121V26.9511H26.5121M26.5121 24.5121H24.0731M26.5121 24.5121V26.9511M36.2682 24.5121H33.8291M36.2682 24.5121H38.7072M36.2682 24.5121V26.9511M33.8291 24.5121H31.3901V26.9511M33.8291 24.5121V26.9511M41.1462 24.5121H38.7072M41.1462 24.5121H43.5852V26.9511M41.1462 24.5121V26.9511M38.7072 24.5121V26.9511H36.2682M48.4633 24.5121H46.0243M48.4633 24.5121V26.9511H46.0243M46.0243 24.5121V26.9511M53.3413 22.0731H50.9023V24.5121M53.3413 22.0731V24.5121M53.3413 24.5121H50.9023M53.3413 24.5121H55.7804M53.3413 24.5121V26.9511M50.9023 24.5121V26.9511M55.7804 24.5121H58.2194M55.7804 24.5121V26.9511H58.2194V24.5121M70.4145 22.0731H67.9755V24.5121M70.4145 22.0731V24.5121M70.4145 22.0731H72.8535M70.4145 24.5121H67.9755M70.4145 24.5121H72.8535M70.4145 24.5121V26.9511M67.9755 24.5121H65.5365V26.9511M67.9755 24.5121V26.9511M72.8535 22.0731V24.5121M72.8535 22.0731H75.2926V24.5121M72.8535 24.5121H75.2926M72.8535 24.5121V26.9511M75.2926 24.5121H77.7316V26.9511H75.2926M75.2926 24.5121V26.9511M87.4877 24.5121H85.0487M87.4877 24.5121V26.9511M87.4877 24.5121H89.9267M85.0487 24.5121V26.9511H87.4877M102.122 24.5121H99.6828M102.122 24.5121V26.9511H99.6828M99.6828 24.5121H97.2438M99.6828 24.5121V26.9511M14.317 26.9511H16.756M16.756 24.5121V26.9511M16.756 24.5121H19.195M16.756 26.9511H19.195M19.195 24.5121V26.9511M19.195 24.5121H21.634M19.195 26.9511H21.634M21.634 24.5121V26.9511M21.634 24.5121H24.0731M21.634 26.9511H24.0731M24.0731 24.5121V26.9511M24.0731 26.9511H26.5121M33.8291 26.9511H31.3901M33.8291 26.9511V29.3901M33.8291 26.9511H36.2682M31.3901 26.9511V29.3901H33.8291M36.2682 26.9511V29.3901M43.5852 26.9511H41.1462M43.5852 26.9511V29.3901M43.5852 26.9511H46.0243M41.1462 26.9511V29.3901M46.0243 26.9511V29.3901M53.3413 26.9511H50.9023M53.3413 26.9511V29.3901M50.9023 26.9511V29.3901M63.0974 26.9511V24.5121H60.6584V26.9511M63.0974 26.9511H60.6584M63.0974 26.9511V29.3901M60.6584 26.9511V29.3901M67.9755 26.9511H65.5365M67.9755 26.9511V29.3901M67.9755 26.9511H70.4145M65.5365 26.9511V29.3901H67.9755M72.8535 26.9511H70.4145M72.8535 26.9511H75.2926M72.8535 26.9511V29.3901M70.4145 26.9511V29.3901M75.2926 26.9511V29.3901H72.8535M87.4877 26.9511H89.9267M89.9267 24.5121V26.9511M89.9267 24.5121H92.3657M89.9267 26.9511H92.3657M92.3657 24.5121V26.9511M92.3657 24.5121H94.8048M92.3657 26.9511H94.8048M94.8048 24.5121V26.9511M94.8048 24.5121H97.2438M94.8048 26.9511H97.2438M97.2438 24.5121V26.9511M97.2438 26.9511H99.6828M33.8291 29.3901H36.2682M33.8291 29.3901V31.8291M36.2682 29.3901V31.8291M43.5852 29.3901H41.1462M43.5852 29.3901H46.0243M43.5852 29.3901V31.8291H41.1462V29.3901M46.0243 29.3901H48.4633M46.0243 29.3901V31.8291M53.3413 29.3901H50.9023M53.3413 29.3901V31.8291M53.3413 29.3901H55.7804V31.8291H53.3413M50.9023 29.3901H48.4633M50.9023 29.3901V31.8291M63.0974 29.3901H60.6584M63.0974 29.3901V31.8291M60.6584 29.3901H58.2194V31.8291M60.6584 29.3901V31.8291M67.9755 29.3901H70.4145M67.9755 29.3901V31.8291M70.4145 29.3901V31.8291M70.4145 29.3901H72.8535M72.8535 29.3901V31.8291M14.317 29.3901H11.8779V31.8291M14.317 29.3901V31.8291M14.317 29.3901H16.756V31.8291H14.317M14.317 31.8291H11.8779M14.317 31.8291V34.2682H11.8779V31.8291M21.634 29.3901H19.195V31.8291H21.634M21.634 29.3901V31.8291M21.634 29.3901H24.0731V31.8291M21.634 31.8291H24.0731M24.0731 31.8291H26.5121M24.0731 31.8291V34.2682H26.5121M26.5121 31.8291H28.9511V29.3901H26.5121V31.8291ZM26.5121 31.8291V34.2682M36.2682 31.8291H33.8291M36.2682 31.8291V34.2682M36.2682 31.8291H38.7072V34.2682H36.2682M33.8291 31.8291V34.2682M48.4633 29.3901V31.8291M48.4633 31.8291H46.0243M48.4633 31.8291H50.9023M48.4633 31.8291V34.2682M46.0243 31.8291V34.2682M50.9023 31.8291H53.3413M50.9023 31.8291V34.2682M60.6584 31.8291H58.2194M60.6584 31.8291H63.0974M60.6584 31.8291V34.2682H58.2194M58.2194 31.8291V34.2682M63.0974 31.8291H65.5365V34.2682M63.0974 31.8291V34.2682M70.4145 31.8291H67.9755M70.4145 31.8291H72.8535M70.4145 31.8291V34.2682M67.9755 31.8291V34.2682M72.8535 31.8291V34.2682M72.8535 31.8291H75.2926M80.1706 29.3901H77.7316V31.8291M80.1706 29.3901V31.8291M80.1706 29.3901H82.6096V31.8291H80.1706M80.1706 31.8291H77.7316M80.1706 31.8291V34.2682M77.7316 31.8291H75.2926M77.7316 31.8291V34.2682M87.4877 31.8291V29.3901H85.0487V31.8291H87.4877ZM87.4877 31.8291H89.9267M87.4877 31.8291V34.2682M99.6828 31.8291H102.122V29.3901H99.6828V31.8291ZM99.6828 31.8291H97.2438V34.2682M99.6828 31.8291V34.2682M26.5121 34.2682H28.9511V36.7072H26.5121M26.5121 34.2682V36.7072M36.2682 34.2682H33.8291M36.2682 34.2682V36.7072M33.8291 34.2682V36.7072M48.4633 34.2682H46.0243M48.4633 34.2682H50.9023M48.4633 34.2682V36.7072M46.0243 34.2682H43.5852M46.0243 34.2682V36.7072M50.9023 34.2682V36.7072M50.9023 34.2682H53.3413V36.7072M58.2194 34.2682H55.7804V36.7072M58.2194 34.2682V36.7072M65.5365 34.2682H63.0974M65.5365 34.2682V36.7072M63.0974 34.2682V36.7072M70.4145 34.2682H67.9755M70.4145 34.2682H72.8535M70.4145 34.2682V36.7072M67.9755 34.2682V36.7072M72.8535 34.2682H75.2926M72.8535 34.2682V36.7072M75.2926 31.8291V34.2682M75.2926 34.2682H77.7316M75.2926 34.2682V36.7072M77.7316 34.2682H80.1706M77.7316 34.2682V36.7072M80.1706 34.2682V36.7072M80.1706 34.2682H82.6096V36.7072H80.1706M89.9267 31.8291V34.2682M89.9267 31.8291H92.3657V34.2682M89.9267 34.2682H87.4877M89.9267 34.2682H92.3657M89.9267 34.2682V36.7072M87.4877 34.2682H85.0487V36.7072M87.4877 34.2682V36.7072M92.3657 34.2682V36.7072M92.3657 34.2682H94.8048M99.6828 34.2682H97.2438M99.6828 34.2682V36.7072M99.6828 34.2682H102.122V36.7072H99.6828M97.2438 34.2682H94.8048M97.2438 34.2682V36.7072M19.195 34.2682H16.756V36.7072H19.195M19.195 34.2682V36.7072M19.195 34.2682H21.634V36.7072M19.195 36.7072H21.634M19.195 36.7072V39.1462M21.634 36.7072V39.1462M21.634 36.7072H24.0731M26.5121 36.7072H24.0731M26.5121 36.7072V39.1462M36.2682 36.7072H33.8291M36.2682 36.7072H38.7072V39.1462M36.2682 36.7072V39.1462M33.8291 36.7072H31.3901V39.1462H33.8291V36.7072ZM43.5852 34.2682H41.1462V36.7072H43.5852M43.5852 34.2682V36.7072M43.5852 36.7072H46.0243M46.0243 36.7072H48.4633M48.4633 36.7072H50.9023M50.9023 36.7072H53.3413M50.9023 36.7072V39.1462M53.3413 36.7072V39.1462M53.3413 36.7072H55.7804M58.2194 36.7072H55.7804M58.2194 36.7072V39.1462M58.2194 36.7072H60.6584M55.7804 36.7072V39.1462M65.5365 36.7072H63.0974M65.5365 36.7072H67.9755M65.5365 36.7072V39.1462M63.0974 36.7072H60.6584M63.0974 36.7072V39.1462M70.4145 36.7072H67.9755M70.4145 36.7072H72.8535M70.4145 36.7072V39.1462H72.8535V36.7072M67.9755 36.7072V39.1462M72.8535 36.7072H75.2926M75.2926 36.7072H77.7316M75.2926 36.7072V39.1462H77.7316M80.1706 36.7072H77.7316M80.1706 36.7072V39.1462M77.7316 36.7072V39.1462M87.4877 36.7072H85.0487M87.4877 36.7072V39.1462M87.4877 36.7072H89.9267M85.0487 36.7072V39.1462M92.3657 36.7072H89.9267M92.3657 36.7072H94.8048M92.3657 36.7072V39.1462M89.9267 36.7072V39.1462M94.8048 34.2682V36.7072M94.8048 36.7072H97.2438M94.8048 36.7072V39.1462M97.2438 36.7072H99.6828M97.2438 36.7072V39.1462M21.634 39.1462H19.195M21.634 39.1462H24.0731M21.634 39.1462V41.5852M19.195 39.1462V41.5852M24.0731 36.7072V39.1462M24.0731 39.1462H26.5121M24.0731 39.1462V41.5852M26.5121 39.1462V41.5852M26.5121 39.1462H28.9511V41.5852H26.5121M38.7072 39.1462H36.2682M38.7072 39.1462V41.5852H36.2682M36.2682 39.1462V41.5852M53.3413 39.1462H50.9023M53.3413 39.1462H55.7804M53.3413 39.1462V41.5852M50.9023 39.1462V41.5852M55.7804 39.1462H58.2194M58.2194 39.1462H60.6584M58.2194 39.1462V41.5852M60.6584 36.7072V39.1462M60.6584 39.1462H63.0974M60.6584 39.1462V41.5852M63.0974 39.1462V41.5852M67.9755 39.1462H65.5365M67.9755 39.1462V41.5852M65.5365 39.1462V41.5852M77.7316 39.1462H80.1706M80.1706 39.1462H82.6096M80.1706 39.1462V41.5852M87.4877 39.1462H85.0487M87.4877 39.1462H89.9267M87.4877 39.1462V41.5852M85.0487 39.1462H82.6096M85.0487 39.1462V41.5852M89.9267 39.1462H92.3657M89.9267 39.1462V41.5852M92.3657 39.1462H94.8048M92.3657 39.1462V41.5852M97.2438 39.1462H94.8048M97.2438 39.1462H99.6828M97.2438 39.1462V41.5852M94.8048 39.1462V41.5852M14.317 39.1462H11.8779V41.5852M14.317 39.1462V41.5852M14.317 39.1462H16.756V41.5852H14.317M14.317 41.5852H11.8779M14.317 41.5852V44.0243M11.8779 41.5852V44.0243M21.634 41.5852H19.195M21.634 41.5852V44.0243M21.634 41.5852H24.0731M19.195 41.5852V44.0243H21.634M26.5121 41.5852H24.0731M26.5121 41.5852V44.0243M24.0731 41.5852V44.0243M36.2682 41.5852H33.8291M36.2682 41.5852V44.0243M43.5852 41.5852H46.0243V39.1462H43.5852V41.5852ZM43.5852 41.5852H41.1462V44.0243H43.5852V41.5852ZM53.3413 41.5852H50.9023M53.3413 41.5852V44.0243M53.3413 41.5852H55.7804M50.9023 41.5852H48.4633V44.0243M50.9023 41.5852V44.0243M60.6584 41.5852H58.2194M60.6584 41.5852H63.0974M58.2194 41.5852H55.7804M58.2194 41.5852V44.0243M63.0974 41.5852H65.5365M63.0974 41.5852V44.0243M67.9755 41.5852H65.5365M67.9755 41.5852H70.4145V44.0243H67.9755V41.5852ZM65.5365 41.5852V44.0243H63.0974M82.6096 39.1462V41.5852M82.6096 41.5852H80.1706M82.6096 41.5852H85.0487M80.1706 41.5852H77.7316M80.1706 41.5852V44.0243M85.0487 41.5852H87.4877M87.4877 41.5852H89.9267M89.9267 41.5852H92.3657M89.9267 41.5852V44.0243M94.8048 41.5852H92.3657M94.8048 41.5852V44.0243M94.8048 41.5852H97.2438M92.3657 41.5852V44.0243M99.6828 39.1462V41.5852M99.6828 39.1462H102.122V41.5852H99.6828M99.6828 41.5852H97.2438M99.6828 41.5852V44.0243M97.2438 41.5852V44.0243M14.317 44.0243H11.8779M14.317 44.0243V46.4633M11.8779 44.0243V46.4633M21.634 44.0243H24.0731M21.634 44.0243V46.4633M24.0731 44.0243H26.5121M24.0731 44.0243V46.4633M26.5121 44.0243H28.9511V46.4633M26.5121 44.0243V46.4633M33.8291 41.5852H31.3901V44.0243M33.8291 41.5852V44.0243M33.8291 44.0243H31.3901M33.8291 44.0243H36.2682M33.8291 44.0243V46.4633M31.3901 44.0243V46.4633M36.2682 44.0243V46.4633M36.2682 44.0243H38.7072V46.4633H36.2682M50.9023 44.0243H48.4633M50.9023 44.0243H53.3413M50.9023 44.0243V46.4633M48.4633 44.0243H46.0243V46.4633H48.4633M48.4633 44.0243V46.4633M53.3413 44.0243H55.7804M53.3413 44.0243V46.4633M55.7804 41.5852V44.0243M55.7804 44.0243H58.2194M55.7804 44.0243V46.4633M58.2194 44.0243V46.4633M58.2194 44.0243H60.6584M63.0974 44.0243H60.6584M63.0974 44.0243V46.4633M75.2926 41.5852H72.8535V44.0243M75.2926 41.5852V44.0243M75.2926 41.5852H77.7316M75.2926 44.0243H72.8535M75.2926 44.0243H77.7316M75.2926 44.0243V46.4633M72.8535 44.0243V46.4633H75.2926M77.7316 41.5852V44.0243M77.7316 44.0243H80.1706M77.7316 44.0243V46.4633M80.1706 44.0243V46.4633H77.7316M92.3657 44.0243H89.9267M92.3657 44.0243H94.8048M92.3657 44.0243V46.4633M89.9267 44.0243V46.4633M94.8048 44.0243H97.2438M97.2438 44.0243H99.6828M97.2438 44.0243V46.4633M99.6828 44.0243V46.4633M99.6828 44.0243H102.122V46.4633M14.317 46.4633H11.8779M14.317 46.4633V48.9023M14.317 46.4633H16.756V48.9023M11.8779 46.4633V48.9023H14.317M24.0731 46.4633H21.634M24.0731 46.4633H26.5121M24.0731 46.4633V48.9023M21.634 46.4633H19.195V48.9023H21.634M21.634 46.4633V48.9023M28.9511 46.4633H26.5121M28.9511 46.4633H31.3901M28.9511 46.4633V48.9023M26.5121 46.4633V48.9023M33.8291 46.4633H31.3901M33.8291 46.4633H36.2682M31.3901 46.4633V48.9023M48.4633 46.4633H50.9023M48.4633 46.4633V48.9023H50.9023V46.4633M50.9023 46.4633H53.3413M53.3413 46.4633H55.7804M55.7804 46.4633H58.2194M55.7804 46.4633V48.9023H58.2194V46.4633M58.2194 46.4633H60.6584M60.6584 44.0243V46.4633M60.6584 46.4633H63.0974M60.6584 46.4633V48.9023M63.0974 46.4633V48.9023M75.2926 46.4633H77.7316M75.2926 46.4633V48.9023M77.7316 46.4633V48.9023M92.3657 46.4633H89.9267M92.3657 46.4633V48.9023M89.9267 46.4633H87.4877V48.9023M89.9267 46.4633V48.9023M99.6828 46.4633H97.2438M99.6828 46.4633H102.122M99.6828 46.4633V48.9023M97.2438 46.4633H94.8048V48.9023M97.2438 46.4633V48.9023M102.122 46.4633V48.9023M14.317 48.9023H16.756M14.317 48.9023V51.3413M16.756 48.9023V51.3413M21.634 48.9023H24.0731M21.634 48.9023V51.3413M26.5121 48.9023H24.0731M26.5121 48.9023V51.3413M26.5121 48.9023H28.9511M24.0731 48.9023V51.3413M31.3901 48.9023H28.9511M31.3901 48.9023H33.8291V51.3413M31.3901 48.9023V51.3413M28.9511 48.9023V51.3413M43.5852 48.9023V46.4633H41.1462V48.9023M43.5852 48.9023H41.1462M43.5852 48.9023V51.3413M43.5852 48.9023H46.0243V51.3413M41.1462 48.9023H38.7072M41.1462 48.9023V51.3413M63.0974 48.9023H60.6584M63.0974 48.9023V51.3413M60.6584 48.9023V51.3413M67.9755 48.9023V46.4633H65.5365V48.9023M67.9755 48.9023H65.5365M67.9755 48.9023V51.3413M67.9755 48.9023H70.4145V51.3413H67.9755M65.5365 48.9023V51.3413M77.7316 48.9023H75.2926M77.7316 48.9023H80.1706V51.3413M77.7316 48.9023V51.3413M75.2926 48.9023H72.8535V51.3413H75.2926V48.9023ZM89.9267 48.9023H87.4877M89.9267 48.9023H92.3657M87.4877 48.9023H85.0487V51.3413M87.4877 48.9023V51.3413M92.3657 48.9023H94.8048M92.3657 48.9023V51.3413M97.2438 48.9023H94.8048M97.2438 48.9023V51.3413M97.2438 48.9023H99.6828M94.8048 48.9023V51.3413M102.122 48.9023H99.6828M102.122 48.9023V51.3413H99.6828M99.6828 48.9023V51.3413M16.756 51.3413H14.317M16.756 51.3413V53.7804M16.756 51.3413H19.195V53.7804M14.317 51.3413V53.7804M24.0731 51.3413H21.634M24.0731 51.3413H26.5121M24.0731 51.3413V53.7804M21.634 51.3413V53.7804M26.5121 51.3413H28.9511M26.5121 51.3413V53.7804M28.9511 51.3413H31.3901M28.9511 51.3413V53.7804M33.8291 51.3413H31.3901M33.8291 51.3413V53.7804M33.8291 51.3413H36.2682M31.3901 51.3413V53.7804M38.7072 48.9023H36.2682V51.3413M38.7072 48.9023V51.3413M38.7072 51.3413H36.2682M38.7072 51.3413H41.1462M38.7072 51.3413V53.7804M36.2682 51.3413V53.7804M41.1462 51.3413H43.5852M41.1462 51.3413V53.7804M43.5852 51.3413H46.0243M46.0243 51.3413H48.4633M46.0243 51.3413V53.7804M63.0974 51.3413H60.6584M63.0974 51.3413V53.7804M60.6584 51.3413H58.2194M60.6584 51.3413V53.7804M67.9755 51.3413H65.5365M67.9755 51.3413V53.7804M65.5365 51.3413V53.7804M80.1706 51.3413H77.7316M80.1706 51.3413V53.7804M77.7316 51.3413V53.7804M87.4877 51.3413H85.0487M87.4877 51.3413H89.9267V53.7804H87.4877M87.4877 51.3413V53.7804M85.0487 51.3413H82.6096V53.7804M85.0487 51.3413V53.7804M94.8048 51.3413H92.3657M94.8048 51.3413H97.2438M94.8048 51.3413V53.7804H92.3657V51.3413M97.2438 51.3413H99.6828M16.756 53.7804H14.317M16.756 53.7804H19.195M16.756 53.7804V56.2194M14.317 53.7804H11.8779V56.2194M14.317 53.7804V56.2194M19.195 53.7804V56.2194M19.195 53.7804H21.634M24.0731 53.7804H21.634M24.0731 53.7804H26.5121M21.634 53.7804V56.2194H19.195M26.5121 53.7804H28.9511M26.5121 53.7804V56.2194M31.3901 53.7804H28.9511M31.3901 53.7804H33.8291M31.3901 53.7804V56.2194M28.9511 53.7804V56.2194M33.8291 53.7804H36.2682M33.8291 53.7804V56.2194M36.2682 53.7804H38.7072M36.2682 53.7804V56.2194M38.7072 53.7804H41.1462M41.1462 53.7804H43.5852V56.2194M41.1462 53.7804V56.2194M48.4633 51.3413V53.7804M48.4633 51.3413H50.9023V53.7804M48.4633 53.7804H46.0243M48.4633 53.7804H50.9023M48.4633 53.7804V56.2194M46.0243 53.7804V56.2194M50.9023 53.7804V56.2194M55.7804 51.3413H53.3413V53.7804M55.7804 51.3413V53.7804M55.7804 51.3413H58.2194M55.7804 53.7804H53.3413M55.7804 53.7804H58.2194M55.7804 53.7804V56.2194M53.3413 53.7804V56.2194M58.2194 51.3413V53.7804M58.2194 53.7804H60.6584M58.2194 53.7804V56.2194M60.6584 53.7804H63.0974M60.6584 53.7804V56.2194M63.0974 53.7804V56.2194M63.0974 53.7804H65.5365M67.9755 53.7804H65.5365M67.9755 53.7804V56.2194M67.9755 53.7804H70.4145V56.2194H67.9755M65.5365 53.7804V56.2194M80.1706 53.7804H77.7316M80.1706 53.7804V56.2194M80.1706 53.7804H82.6096M77.7316 53.7804V56.2194M85.0487 53.7804H82.6096M85.0487 53.7804V56.2194M85.0487 53.7804H87.4877M82.6096 53.7804V56.2194M87.4877 53.7804V56.2194H85.0487M14.317 56.2194H11.8779M14.317 56.2194H16.756M14.317 56.2194V58.6584M11.8779 56.2194V58.6584H14.317M16.756 56.2194H19.195M16.756 56.2194V58.6584H14.317M28.9511 56.2194H26.5121M28.9511 56.2194H31.3901M28.9511 56.2194V58.6584M26.5121 56.2194H24.0731V58.6584M26.5121 56.2194V58.6584M33.8291 56.2194H31.3901M33.8291 56.2194H36.2682M33.8291 56.2194V58.6584M31.3901 56.2194V58.6584M36.2682 56.2194H38.7072M36.2682 56.2194V58.6584H38.7072M43.5852 56.2194H41.1462M43.5852 56.2194H46.0243M43.5852 56.2194V58.6584H46.0243M41.1462 56.2194H38.7072M41.1462 56.2194V58.6584M48.4633 56.2194H46.0243M48.4633 56.2194H50.9023M48.4633 56.2194V58.6584M46.0243 56.2194V58.6584M50.9023 56.2194V58.6584M50.9023 56.2194H53.3413M55.7804 56.2194H53.3413M55.7804 56.2194H58.2194M53.3413 56.2194V58.6584M58.2194 56.2194H60.6584M60.6584 56.2194H63.0974M63.0974 56.2194H65.5365M65.5365 56.2194H67.9755M65.5365 56.2194V58.6584H67.9755M67.9755 56.2194V58.6584M75.2926 56.2194V53.7804H72.8535V56.2194M75.2926 56.2194H72.8535M75.2926 56.2194V58.6584M72.8535 56.2194V58.6584H75.2926M80.1706 56.2194H77.7316M80.1706 56.2194H82.6096M80.1706 56.2194V58.6584M77.7316 56.2194V58.6584M82.6096 56.2194H85.0487M82.6096 56.2194V58.6584M85.0487 56.2194V58.6584M102.122 56.2194V53.7804H99.6828V56.2194M102.122 56.2194H99.6828M102.122 56.2194V58.6584M99.6828 56.2194V58.6584M26.5121 58.6584H24.0731M26.5121 58.6584V61.0974M26.5121 58.6584H28.9511M24.0731 58.6584V61.0974M31.3901 58.6584H28.9511M31.3901 58.6584H33.8291M31.3901 58.6584V61.0974M28.9511 58.6584V61.0974M33.8291 58.6584V61.0974M38.7072 56.2194V58.6584M38.7072 58.6584H41.1462M38.7072 58.6584V61.0974M41.1462 58.6584V61.0974M46.0243 58.6584H48.4633M46.0243 58.6584V61.0974M50.9023 58.6584H48.4633M50.9023 58.6584H53.3413M50.9023 58.6584V61.0974M48.4633 58.6584V61.0974M53.3413 58.6584V61.0974M53.3413 58.6584H55.7804M67.9755 58.6584H70.4145V61.0974M67.9755 58.6584V61.0974M75.2926 58.6584H77.7316M75.2926 58.6584V61.0974H77.7316M80.1706 58.6584H77.7316M80.1706 58.6584V61.0974M77.7316 58.6584V61.0974M85.0487 58.6584H82.6096M85.0487 58.6584V61.0974M85.0487 58.6584H87.4877M82.6096 58.6584V61.0974H85.0487M92.3657 58.6584H94.8048V56.2194H92.3657V58.6584ZM92.3657 58.6584H89.9267M92.3657 58.6584V61.0974M102.122 58.6584H99.6828M102.122 58.6584V61.0974H99.6828M99.6828 58.6584H97.2438V61.0974M99.6828 58.6584V61.0974M26.5121 61.0974H24.0731M26.5121 61.0974H28.9511M26.5121 61.0974V63.5365M24.0731 61.0974V63.5365M28.9511 61.0974H31.3901M28.9511 61.0974V63.5365M33.8291 61.0974H31.3901M33.8291 61.0974V63.5365M31.3901 61.0974V63.5365M41.1462 61.0974H38.7072M41.1462 61.0974H43.5852M41.1462 61.0974V63.5365M38.7072 61.0974H36.2682V63.5365M38.7072 61.0974V63.5365M48.4633 61.0974H46.0243M48.4633 61.0974H50.9023M48.4633 61.0974V63.5365M46.0243 61.0974H43.5852M46.0243 61.0974V63.5365M50.9023 61.0974H53.3413M50.9023 61.0974V63.5365M53.3413 61.0974H55.7804M55.7804 58.6584V61.0974M55.7804 58.6584H58.2194V61.0974M55.7804 61.0974H58.2194M55.7804 61.0974V63.5365H58.2194M58.2194 61.0974V63.5365M58.2194 61.0974H60.6584M70.4145 61.0974H67.9755M70.4145 61.0974V63.5365M70.4145 61.0974H72.8535V63.5365M67.9755 61.0974H65.5365V63.5365M67.9755 61.0974V63.5365M77.7316 61.0974H80.1706M77.7316 61.0974V63.5365M80.1706 61.0974V63.5365M85.0487 61.0974H87.4877M87.4877 58.6584V61.0974M87.4877 58.6584H89.9267M87.4877 61.0974H89.9267M87.4877 61.0974V63.5365M89.9267 58.6584V61.0974M89.9267 61.0974H92.3657M89.9267 61.0974V63.5365M92.3657 61.0974V63.5365M99.6828 61.0974H97.2438M99.6828 61.0974V63.5365M97.2438 61.0974H94.8048V63.5365M97.2438 61.0974V63.5365M16.756 63.5365V61.0974H14.317V63.5365M16.756 63.5365H14.317M16.756 63.5365V65.9755M14.317 63.5365H11.8779V65.9755H14.317M14.317 63.5365V65.9755M26.5121 63.5365H24.0731M26.5121 63.5365H28.9511M26.5121 63.5365V65.9755M24.0731 63.5365H21.634V65.9755M24.0731 63.5365V65.9755M31.3901 63.5365H28.9511M31.3901 63.5365H33.8291M31.3901 63.5365V65.9755M28.9511 63.5365V65.9755H26.5121M33.8291 63.5365V65.9755M33.8291 63.5365H36.2682M38.7072 63.5365H36.2682M38.7072 63.5365H41.1462M38.7072 63.5365V65.9755M36.2682 63.5365V65.9755H33.8291M43.5852 61.0974V63.5365M43.5852 63.5365H41.1462M43.5852 63.5365H46.0243M41.1462 63.5365V65.9755M46.0243 63.5365H48.4633M46.0243 63.5365V65.9755H48.4633M48.4633 63.5365H50.9023M48.4633 63.5365V65.9755M50.9023 63.5365V65.9755M50.9023 63.5365H53.3413V65.9755M58.2194 63.5365H60.6584M60.6584 61.0974V63.5365M60.6584 61.0974H63.0974V63.5365H60.6584M67.9755 63.5365H65.5365M67.9755 63.5365H70.4145M67.9755 63.5365V65.9755M65.5365 63.5365V65.9755H67.9755M70.4145 63.5365H72.8535M70.4145 63.5365V65.9755M72.8535 63.5365V65.9755H70.4145M80.1706 63.5365H77.7316M80.1706 63.5365V65.9755M80.1706 63.5365H82.6096V65.9755H80.1706M77.7316 63.5365V65.9755M89.9267 63.5365H87.4877M89.9267 63.5365H92.3657M89.9267 63.5365V65.9755M87.4877 63.5365V65.9755M92.3657 63.5365H94.8048M92.3657 63.5365V65.9755M97.2438 63.5365H94.8048M97.2438 63.5365H99.6828M94.8048 63.5365V65.9755M99.6828 63.5365H102.122V65.9755M99.6828 63.5365V65.9755M14.317 65.9755H16.756M16.756 65.9755H19.195M16.756 65.9755V68.4145M24.0731 65.9755H21.634M24.0731 65.9755V68.4145M24.0731 65.9755H26.5121M21.634 65.9755H19.195M21.634 65.9755V68.4145M26.5121 65.9755V68.4145M33.8291 65.9755H31.3901M33.8291 65.9755V68.4145H31.3901M31.3901 65.9755V68.4145M41.1462 65.9755H38.7072M41.1462 65.9755V68.4145M41.1462 65.9755H43.5852V68.4145M38.7072 65.9755V68.4145M48.4633 65.9755H50.9023M50.9023 65.9755H53.3413M50.9023 65.9755V68.4145M53.3413 65.9755V68.4145M53.3413 65.9755H55.7804M67.9755 65.9755H70.4145M67.9755 65.9755V68.4145M70.4145 65.9755V68.4145M80.1706 65.9755H77.7316M80.1706 65.9755V68.4145M77.7316 65.9755V68.4145H80.1706M89.9267 65.9755H87.4877M89.9267 65.9755V68.4145M89.9267 65.9755H92.3657M87.4877 65.9755V68.4145M94.8048 65.9755H92.3657M94.8048 65.9755V68.4145M94.8048 65.9755H97.2438M92.3657 65.9755V68.4145M102.122 65.9755H99.6828M102.122 65.9755V68.4145M99.6828 65.9755H97.2438M99.6828 65.9755V68.4145M19.195 65.9755V68.4145M19.195 68.4145H16.756M19.195 68.4145H21.634M19.195 68.4145V70.8535H16.756M16.756 68.4145V70.8535M21.634 68.4145H24.0731M24.0731 68.4145H26.5121M24.0731 68.4145V70.8535M26.5121 68.4145V70.8535M26.5121 68.4145H28.9511M31.3901 68.4145H28.9511M31.3901 68.4145V70.8535M41.1462 68.4145H38.7072M41.1462 68.4145H43.5852M41.1462 68.4145V70.8535M38.7072 68.4145V70.8535M43.5852 68.4145V70.8535M53.3413 68.4145H50.9023M53.3413 68.4145H55.7804M53.3413 68.4145V70.8535M50.9023 68.4145V70.8535M55.7804 65.9755V68.4145M55.7804 65.9755H58.2194V68.4145M55.7804 68.4145H58.2194M58.2194 68.4145H60.6584M58.2194 68.4145V70.8535H60.6584M70.4145 68.4145H67.9755M70.4145 68.4145V70.8535M70.4145 68.4145H72.8535V70.8535M67.9755 68.4145V70.8535M80.1706 68.4145H82.6096V70.8535M80.1706 68.4145V70.8535M89.9267 68.4145H87.4877M89.9267 68.4145H92.3657M89.9267 68.4145V70.8535M87.4877 68.4145H85.0487V70.8535H87.4877M87.4877 68.4145V70.8535M92.3657 68.4145H94.8048M92.3657 68.4145V70.8535M94.8048 68.4145H97.2438M94.8048 68.4145V70.8535M97.2438 65.9755V68.4145M97.2438 68.4145H99.6828M99.6828 68.4145H102.122M99.6828 68.4145V70.8535M102.122 68.4145V70.8535H99.6828M16.756 70.8535H14.317M16.756 70.8535V73.2926M26.5121 70.8535H24.0731M26.5121 70.8535H28.9511M26.5121 70.8535V73.2926M24.0731 70.8535V73.2926M28.9511 68.4145V70.8535M28.9511 70.8535H31.3901M28.9511 70.8535V73.2926M31.3901 70.8535V73.2926M31.3901 70.8535H33.8291V73.2926H31.3901M41.1462 70.8535H38.7072M41.1462 70.8535H43.5852M38.7072 70.8535H36.2682V73.2926M38.7072 70.8535V73.2926M43.5852 70.8535H46.0243M43.5852 70.8535V73.2926M53.3413 70.8535H50.9023M53.3413 70.8535V73.2926H50.9023M50.9023 70.8535H48.4633M50.9023 70.8535V73.2926M60.6584 68.4145V70.8535M60.6584 68.4145H63.0974V70.8535H60.6584M70.4145 70.8535H67.9755M70.4145 70.8535H72.8535M70.4145 70.8535V73.2926H67.9755M67.9755 70.8535H65.5365V73.2926M67.9755 70.8535V73.2926M72.8535 70.8535H75.2926M72.8535 70.8535V73.2926M82.6096 70.8535H80.1706M82.6096 70.8535V73.2926M80.1706 70.8535H77.7316M80.1706 70.8535V73.2926M87.4877 70.8535H89.9267M89.9267 70.8535H92.3657M89.9267 70.8535V73.2926M94.8048 70.8535H92.3657M94.8048 70.8535V73.2926M94.8048 70.8535H97.2438M92.3657 70.8535V73.2926M99.6828 70.8535H97.2438M99.6828 70.8535V73.2926M14.317 70.8535H11.8779V73.2926M14.317 70.8535V73.2926M14.317 73.2926H11.8779M14.317 73.2926H16.756M14.317 73.2926V75.7316M11.8779 73.2926V75.7316M16.756 73.2926V75.7316M26.5121 73.2926H24.0731M26.5121 73.2926H28.9511M26.5121 73.2926V75.7316M24.0731 73.2926H21.634V75.7316M24.0731 73.2926V75.7316M31.3901 73.2926H28.9511M31.3901 73.2926V75.7316M28.9511 73.2926V75.7316M38.7072 73.2926H36.2682M38.7072 73.2926V75.7316M38.7072 73.2926H41.1462M36.2682 73.2926V75.7316M46.0243 70.8535V73.2926M46.0243 70.8535H48.4633M46.0243 73.2926H43.5852M46.0243 73.2926H48.4633M46.0243 73.2926V75.7316H43.5852M43.5852 73.2926H41.1462M43.5852 73.2926V75.7316M48.4633 70.8535V73.2926M48.4633 73.2926H50.9023M48.4633 73.2926V75.7316H50.9023M50.9023 73.2926V75.7316M67.9755 73.2926H65.5365M67.9755 73.2926V75.7316M65.5365 73.2926V75.7316M75.2926 70.8535V73.2926M75.2926 70.8535H77.7316M75.2926 73.2926H72.8535M75.2926 73.2926H77.7316M75.2926 73.2926V75.7316H72.8535M72.8535 73.2926V75.7316M77.7316 70.8535V73.2926M77.7316 73.2926H80.1706M77.7316 73.2926V75.7316H80.1706M80.1706 73.2926H82.6096M80.1706 73.2926V75.7316M82.6096 73.2926V75.7316M82.6096 73.2926H85.0487V75.7316M92.3657 73.2926H89.9267M92.3657 73.2926H94.8048M92.3657 73.2926V75.7316M89.9267 73.2926V75.7316M94.8048 73.2926H97.2438M94.8048 73.2926V75.7316M97.2438 70.8535V73.2926M97.2438 73.2926H99.6828M97.2438 73.2926V75.7316M99.6828 73.2926V75.7316M99.6828 73.2926H102.122V75.7316M14.317 75.7316H11.8779M14.317 75.7316H16.756M14.317 75.7316V78.1706M11.8779 75.7316V78.1706M16.756 75.7316H19.195M16.756 75.7316V78.1706H19.195M24.0731 75.7316H21.634M24.0731 75.7316V78.1706M24.0731 75.7316H26.5121M21.634 75.7316H19.195M21.634 75.7316V78.1706M28.9511 75.7316H26.5121M28.9511 75.7316H31.3901M28.9511 75.7316V78.1706M26.5121 75.7316V78.1706M31.3901 75.7316V78.1706M38.7072 75.7316H36.2682M38.7072 75.7316H41.1462M38.7072 75.7316V78.1706M36.2682 75.7316H33.8291V78.1706M36.2682 75.7316V78.1706M41.1462 73.2926V75.7316M41.1462 75.7316H43.5852M41.1462 75.7316V78.1706H38.7072M50.9023 75.7316H53.3413V78.1706H50.9023M50.9023 75.7316V78.1706M58.2194 73.2926H55.7804V75.7316M58.2194 73.2926V75.7316M58.2194 73.2926H60.6584V75.7316M58.2194 75.7316H55.7804M58.2194 75.7316H60.6584M58.2194 75.7316V78.1706M55.7804 75.7316V78.1706H58.2194M60.6584 75.7316V78.1706M60.6584 75.7316H63.0974V78.1706M67.9755 75.7316H65.5365M67.9755 75.7316V78.1706M65.5365 75.7316V78.1706M72.8535 75.7316H70.4145V78.1706M72.8535 75.7316V78.1706M80.1706 75.7316H82.6096M82.6096 75.7316H85.0487M82.6096 75.7316V78.1706M85.0487 75.7316V78.1706M85.0487 75.7316H87.4877M92.3657 75.7316H89.9267M92.3657 75.7316H94.8048M92.3657 75.7316V78.1706M89.9267 75.7316H87.4877M89.9267 75.7316V78.1706M94.8048 75.7316H97.2438M94.8048 75.7316V78.1706M97.2438 75.7316H99.6828M97.2438 75.7316V78.1706M99.6828 75.7316H102.122M99.6828 75.7316V78.1706M102.122 75.7316V78.1706H99.6828M14.317 78.1706H11.8779M14.317 78.1706V80.6096H11.8779V78.1706M19.195 75.7316V78.1706M19.195 78.1706H21.634M19.195 78.1706V80.6096H21.634V78.1706M21.634 78.1706H24.0731M24.0731 78.1706H26.5121M24.0731 78.1706V80.6096H26.5121M26.5121 78.1706V80.6096M26.5121 78.1706H28.9511M31.3901 78.1706H28.9511M31.3901 78.1706V80.6096M28.9511 78.1706V80.6096M36.2682 78.1706H33.8291M36.2682 78.1706V80.6096M36.2682 78.1706H38.7072M33.8291 78.1706V80.6096M38.7072 78.1706V80.6096M50.9023 78.1706H48.4633V80.6096M50.9023 78.1706V80.6096M58.2194 78.1706H60.6584M58.2194 78.1706V80.6096M60.6584 78.1706H63.0974M60.6584 78.1706V80.6096M63.0974 78.1706V80.6096M67.9755 78.1706H65.5365M67.9755 78.1706V80.6096M65.5365 78.1706V80.6096M72.8535 78.1706H70.4145M72.8535 78.1706V80.6096M72.8535 78.1706H75.2926V80.6096M70.4145 78.1706V80.6096H72.8535M85.0487 78.1706H82.6096M85.0487 78.1706H87.4877M85.0487 78.1706V80.6096M82.6096 78.1706H80.1706M82.6096 78.1706V80.6096M87.4877 75.7316V78.1706M87.4877 78.1706H89.9267M87.4877 78.1706V80.6096M89.9267 78.1706H92.3657M89.9267 78.1706V80.6096M92.3657 78.1706H94.8048M92.3657 78.1706V80.6096M94.8048 78.1706H97.2438M94.8048 78.1706V80.6096M97.2438 78.1706V80.6096M97.2438 78.1706H99.6828M99.6828 78.1706V80.6096M26.5121 80.6096H28.9511M28.9511 80.6096H31.3901M31.3901 80.6096H33.8291M31.3901 80.6096V83.0487H33.8291M36.2682 80.6096H33.8291M36.2682 80.6096H38.7072M33.8291 80.6096V83.0487M38.7072 80.6096H41.1462M38.7072 80.6096V83.0487M46.0243 80.6096V78.1706H43.5852V80.6096M46.0243 80.6096H43.5852M46.0243 80.6096H48.4633M46.0243 80.6096V83.0487M43.5852 80.6096H41.1462M43.5852 80.6096V83.0487H41.1462M50.9023 80.6096H48.4633M50.9023 80.6096V83.0487M48.4633 80.6096V83.0487M60.6584 80.6096H58.2194M60.6584 80.6096H63.0974M60.6584 80.6096V83.0487M58.2194 80.6096H55.7804M58.2194 80.6096V83.0487M63.0974 80.6096V83.0487M63.0974 80.6096H65.5365M67.9755 80.6096H65.5365M67.9755 80.6096V83.0487M65.5365 80.6096V83.0487M72.8535 80.6096H75.2926M72.8535 80.6096V83.0487M75.2926 80.6096V83.0487M80.1706 78.1706H77.7316V80.6096M80.1706 78.1706V80.6096M80.1706 80.6096H77.7316M80.1706 80.6096H82.6096M80.1706 80.6096V83.0487M77.7316 80.6096V83.0487M82.6096 80.6096H85.0487M82.6096 80.6096V83.0487M85.0487 80.6096H87.4877M87.4877 80.6096H89.9267M89.9267 80.6096H92.3657M89.9267 80.6096V83.0487M92.3657 80.6096H94.8048M92.3657 80.6096V83.0487M94.8048 80.6096H97.2438M94.8048 80.6096V83.0487M97.2438 80.6096H99.6828M97.2438 80.6096V83.0487M99.6828 80.6096V83.0487M33.8291 83.0487H36.2682V85.4877M33.8291 83.0487V85.4877H36.2682M41.1462 80.6096V83.0487M41.1462 83.0487H38.7072M41.1462 83.0487V85.4877M38.7072 83.0487V85.4877M48.4633 83.0487H46.0243M48.4633 83.0487H50.9023M48.4633 83.0487V85.4877M46.0243 83.0487V85.4877M50.9023 83.0487V85.4877M50.9023 83.0487H53.3413M55.7804 80.6096H53.3413V83.0487M55.7804 80.6096V83.0487M55.7804 83.0487H53.3413M55.7804 83.0487H58.2194M55.7804 83.0487V85.4877H58.2194M53.3413 83.0487V85.4877H50.9023M58.2194 83.0487H60.6584M58.2194 83.0487V85.4877M60.6584 83.0487H63.0974M60.6584 83.0487V85.4877M63.0974 83.0487H65.5365M63.0974 83.0487V85.4877M65.5365 83.0487H67.9755M67.9755 83.0487H70.4145V85.4877M67.9755 83.0487V85.4877M75.2926 83.0487H72.8535M75.2926 83.0487V85.4877M75.2926 83.0487H77.7316M72.8535 83.0487V85.4877M80.1706 83.0487H77.7316M80.1706 83.0487H82.6096M80.1706 83.0487V85.4877M77.7316 83.0487V85.4877M82.6096 83.0487V85.4877M92.3657 83.0487H89.9267M92.3657 83.0487V85.4877M89.9267 83.0487V85.4877M97.2438 83.0487H94.8048M97.2438 83.0487H99.6828M97.2438 83.0487V85.4877M94.8048 83.0487V85.4877M99.6828 83.0487H102.122V85.4877H99.6828M99.6828 83.0487V85.4877M14.317 83.0487H11.8779V85.4877M14.317 83.0487V85.4877M14.317 83.0487H16.756M14.317 85.4877H11.8779M14.317 85.4877H16.756M14.317 85.4877V87.9267M11.8779 85.4877V87.9267M16.756 83.0487V85.4877M16.756 83.0487H19.195M16.756 85.4877H19.195M19.195 83.0487V85.4877M19.195 83.0487H21.634M19.195 85.4877H21.634M21.634 83.0487V85.4877M21.634 83.0487H24.0731M21.634 85.4877H24.0731M24.0731 83.0487V85.4877M24.0731 83.0487H26.5121M24.0731 85.4877H26.5121M26.5121 83.0487V85.4877M26.5121 83.0487H28.9511V85.4877M26.5121 85.4877H28.9511M26.5121 85.4877V87.9267M28.9511 85.4877V87.9267M36.2682 85.4877H38.7072M36.2682 85.4877V87.9267M41.1462 85.4877H38.7072M41.1462 85.4877H43.5852M41.1462 85.4877V87.9267M38.7072 85.4877V87.9267M48.4633 85.4877H46.0243M48.4633 85.4877H50.9023M48.4633 85.4877V87.9267M46.0243 85.4877H43.5852M46.0243 85.4877V87.9267M58.2194 85.4877H60.6584M60.6584 85.4877H63.0974M60.6584 85.4877V87.9267M63.0974 85.4877V87.9267M70.4145 85.4877H67.9755M70.4145 85.4877V87.9267M67.9755 85.4877H65.5365V87.9267H67.9755M67.9755 85.4877V87.9267M75.2926 85.4877H72.8535M75.2926 85.4877H77.7316M75.2926 85.4877V87.9267M72.8535 85.4877V87.9267H75.2926M77.7316 85.4877H80.1706M77.7316 85.4877V87.9267M82.6096 85.4877H80.1706M82.6096 85.4877V87.9267M80.1706 85.4877V87.9267M92.3657 85.4877H89.9267M92.3657 85.4877V87.9267M92.3657 85.4877H94.8048M89.9267 85.4877V87.9267M97.2438 85.4877H94.8048M97.2438 85.4877H99.6828M97.2438 85.4877V87.9267M94.8048 85.4877V87.9267H92.3657M99.6828 85.4877V87.9267M14.317 87.9267H11.8779M14.317 87.9267V90.3657M11.8779 87.9267V90.3657M28.9511 87.9267H26.5121M28.9511 87.9267V90.3657M26.5121 87.9267V90.3657M38.7072 87.9267H36.2682M38.7072 87.9267V90.3657M36.2682 87.9267H33.8291M36.2682 87.9267V90.3657M43.5852 85.4877V87.9267M43.5852 87.9267H41.1462M43.5852 87.9267H46.0243M43.5852 87.9267V90.3657H41.1462V87.9267M46.0243 87.9267H48.4633M46.0243 87.9267V90.3657M48.4633 87.9267V90.3657M48.4633 87.9267H50.9023V90.3657M63.0974 87.9267H60.6584M63.0974 87.9267V90.3657H60.6584M60.6584 87.9267H58.2194V90.3657M60.6584 87.9267V90.3657M67.9755 87.9267H70.4145M67.9755 87.9267V90.3657M70.4145 87.9267V90.3657M75.2926 87.9267H77.7316M75.2926 87.9267V90.3657M80.1706 87.9267H77.7316M80.1706 87.9267H82.6096M80.1706 87.9267V90.3657M77.7316 87.9267V90.3657M82.6096 87.9267V90.3657M82.6096 87.9267H85.0487M92.3657 87.9267H89.9267M92.3657 87.9267V90.3657H89.9267M89.9267 87.9267H87.4877M89.9267 87.9267V90.3657M99.6828 87.9267H97.2438M99.6828 87.9267V90.3657M97.2438 87.9267V90.3657M14.317 90.3657H11.8779M14.317 90.3657V92.8048M11.8779 90.3657V92.8048M19.195 87.9267H16.756V90.3657M19.195 87.9267V90.3657M19.195 87.9267H21.634M19.195 90.3657H16.756M19.195 90.3657H21.634M19.195 90.3657V92.8048M16.756 90.3657V92.8048M21.634 87.9267V90.3657M21.634 87.9267H24.0731V90.3657M21.634 90.3657H24.0731M21.634 90.3657V92.8048M24.0731 90.3657V92.8048M28.9511 90.3657H26.5121M28.9511 90.3657V92.8048M26.5121 90.3657V92.8048M33.8291 87.9267H31.3901V90.3657M33.8291 87.9267V90.3657M33.8291 90.3657H31.3901M33.8291 90.3657H36.2682M33.8291 90.3657V92.8048H31.3901V90.3657M36.2682 90.3657H38.7072M36.2682 90.3657V92.8048M38.7072 90.3657V92.8048M48.4633 90.3657H46.0243M48.4633 90.3657H50.9023M48.4633 90.3657V92.8048M46.0243 90.3657V92.8048H48.4633M50.9023 90.3657V92.8048M55.7804 90.3657V87.9267H53.3413V90.3657H55.7804ZM55.7804 90.3657H58.2194M55.7804 90.3657V92.8048M60.6584 90.3657H58.2194M60.6584 90.3657V92.8048H58.2194M58.2194 90.3657V92.8048M70.4145 90.3657H67.9755M70.4145 90.3657V92.8048M70.4145 90.3657H72.8535M67.9755 90.3657H65.5365V92.8048H67.9755M67.9755 90.3657V92.8048M77.7316 90.3657H75.2926M77.7316 90.3657H80.1706M77.7316 90.3657V92.8048M75.2926 90.3657H72.8535M75.2926 90.3657V92.8048M80.1706 90.3657H82.6096M80.1706 90.3657V92.8048M82.6096 90.3657H85.0487M85.0487 87.9267V90.3657M85.0487 87.9267H87.4877M85.0487 90.3657H87.4877M85.0487 90.3657V92.8048M87.4877 87.9267V90.3657M87.4877 90.3657H89.9267M87.4877 90.3657V92.8048M99.6828 90.3657H97.2438M99.6828 90.3657V92.8048M99.6828 90.3657H102.122V92.8048M97.2438 90.3657V92.8048H99.6828M14.317 92.8048H11.8779M14.317 92.8048V95.2438M11.8779 92.8048V95.2438M19.195 92.8048H16.756M19.195 92.8048H21.634M19.195 92.8048V95.2438M16.756 92.8048V95.2438H19.195M21.634 92.8048H24.0731M21.634 92.8048V95.2438M24.0731 92.8048V95.2438H21.634M28.9511 92.8048H26.5121M28.9511 92.8048V95.2438M26.5121 92.8048V95.2438M38.7072 92.8048H36.2682M38.7072 92.8048V95.2438H36.2682M36.2682 92.8048V95.2438M48.4633 92.8048H50.9023M48.4633 92.8048V95.2438M50.9023 92.8048V95.2438M50.9023 92.8048H53.3413M58.2194 92.8048H55.7804M58.2194 92.8048V95.2438H55.7804M55.7804 92.8048H53.3413M55.7804 92.8048V95.2438M67.9755 92.8048H70.4145M67.9755 92.8048V95.2438M70.4145 92.8048H72.8535M70.4145 92.8048V95.2438M72.8535 90.3657V92.8048M72.8535 92.8048H75.2926M75.2926 92.8048H77.7316M77.7316 92.8048H80.1706M77.7316 92.8048V95.2438M80.1706 92.8048V95.2438M87.4877 92.8048H85.0487M87.4877 92.8048H89.9267M87.4877 92.8048V95.2438H89.9267M85.0487 92.8048H82.6096V95.2438H85.0487V92.8048ZM99.6828 92.8048H102.122M99.6828 92.8048V95.2438M102.122 92.8048V95.2438M14.317 95.2438H11.8779M14.317 95.2438V97.6828M11.8779 95.2438V97.6828M19.195 95.2438H21.634M28.9511 95.2438H26.5121M28.9511 95.2438V97.6828M26.5121 95.2438V97.6828M36.2682 95.2438H33.8291M36.2682 95.2438V97.6828M50.9023 95.2438H48.4633M50.9023 95.2438H53.3413M48.4633 95.2438H46.0243V97.6828M48.4633 95.2438V97.6828M53.3413 92.8048V95.2438M53.3413 95.2438H55.7804M53.3413 95.2438V97.6828M55.7804 95.2438V97.6828H53.3413M70.4145 95.2438H67.9755M70.4145 95.2438H72.8535V97.6828H70.4145M70.4145 95.2438V97.6828M67.9755 95.2438H65.5365V97.6828H67.9755M67.9755 95.2438V97.6828M80.1706 95.2438H77.7316M80.1706 95.2438V97.6828M77.7316 95.2438V97.6828H80.1706M89.9267 92.8048V95.2438M89.9267 92.8048H92.3657V95.2438M89.9267 95.2438H92.3657M89.9267 95.2438V97.6828H92.3657M92.3657 95.2438V97.6828M102.122 95.2438H99.6828M102.122 95.2438V97.6828M99.6828 95.2438H97.2438M99.6828 95.2438V97.6828M14.317 97.6828H11.8779M14.317 97.6828V100.122M14.317 97.6828H16.756M11.8779 97.6828V100.122H14.317M28.9511 97.6828H26.5121M28.9511 97.6828V100.122H26.5121M26.5121 97.6828H24.0731M26.5121 97.6828V100.122M33.8291 95.2438H31.3901V97.6828M33.8291 95.2438V97.6828M33.8291 97.6828H31.3901M33.8291 97.6828H36.2682M33.8291 97.6828V100.122H31.3901V97.6828M36.2682 97.6828H38.7072V100.122H36.2682V97.6828ZM48.4633 97.6828H46.0243M48.4633 97.6828V100.122H46.0243M46.0243 97.6828H43.5852M46.0243 97.6828V100.122M53.3413 97.6828H50.9023V100.122H53.3413V97.6828ZM67.9755 97.6828H70.4145M67.9755 97.6828V100.122H70.4145V97.6828M80.1706 97.6828H82.6096V100.122H80.1706V97.6828ZM92.3657 97.6828H94.8048M92.3657 97.6828V100.122H94.8048V97.6828M97.2438 95.2438H94.8048V97.6828M97.2438 95.2438V97.6828M97.2438 97.6828H94.8048M97.2438 97.6828H99.6828M99.6828 97.6828H102.122M99.6828 97.6828V100.122H102.122V97.6828M14.317 100.122H16.756M16.756 97.6828V100.122M16.756 97.6828H19.195M16.756 100.122H19.195M19.195 97.6828V100.122M19.195 97.6828H21.634M19.195 100.122H21.634M21.634 97.6828V100.122M21.634 97.6828H24.0731M21.634 100.122H24.0731M24.0731 97.6828V100.122M24.0731 100.122H26.5121M43.5852 97.6828H41.1462V100.122H43.5852M43.5852 97.6828V100.122M43.5852 100.122H46.0243M80.1706 19.634H82.6096V22.0731H80.1706V19.634ZM80.1706 24.5121H82.6096V26.9511H80.1706V24.5121ZM82.6096 44.0243H85.0487V46.4633H82.6096V44.0243ZM19.195 58.6584H21.634V61.0974H19.195V58.6584ZM85.0487 83.0487H87.4877V85.4877H85.0487V83.0487ZM41.1462 92.8048H43.5852V95.2438H41.1462V92.8048ZM60.6584 97.6828H63.0974V100.122H60.6584V97.6828Z" stroke="black" stroke-width="0.5"/>
</g>
<defs>
<filter id="filter0_d_3342_10319" x="0" y="0" width="114" height="114" filterUnits="userSpaceOnUse" color-interpolation-filters="sRGB">
<feFlood flood-opacity="0" result="BackgroundImageFix"/>
<feColorMatrix in="SourceAlpha" type="matrix" values="0 0 0 0 0 0 0 0 0 0 0 0 0 0 0 0 0 0 127 0" result="hardAlpha"/>
<feOffset dy="2"/>
<feGaussianBlur stdDeviation="1"/>
<feComposite in2="hardAlpha" operator="out"/>
<feColorMatrix type="matrix" values="0 0 0 0 0 0 0 0 0 0 0 0 0 0 0 0 0 0 0.1 0"/>
<feBlend mode="normal" in2="BackgroundImageFix" result="effect1_dropShadow_3342_10319"/>
<feBlend mode="normal" in="SourceGraphic" in2="effect1_dropShadow_3342_10319" result="shape"/>
</filter>
</defs>
</svg>
