<svg width="11" height="9" viewBox="0 0 11 9" fill="none" xmlns="http://www.w3.org/2000/svg">
<path fill-rule="evenodd" clip-rule="evenodd" d="M0.746568 3.87444C3.66177 2.60433 5.6057 1.767 6.57835 1.36244C9.35545 0.207348 9.93251 0.0066963 10.3086 7.06442e-05C10.3914 -0.00138659 10.5763 0.0191148 10.6961 0.116334C10.7973 0.198424 10.8251 0.309316 10.8385 0.387146C10.8518 0.464976 10.8684 0.642276 10.8552 0.780812C10.7047 2.36205 10.0535 6.19929 9.72222 7.97029C9.58204 8.71968 9.30603 8.97094 9.03881 8.99553C8.45809 9.04897 8.01712 8.61175 7.45467 8.24305C6.57454 7.66612 6.07732 7.30697 5.223 6.74399C4.23569 6.09337 4.87572 5.73577 5.43839 5.15136C5.58564 4.99842 8.1443 2.67113 8.19382 2.46C8.20002 2.4336 8.20577 2.33518 8.1473 2.28321C8.08882 2.23123 8.00253 2.24901 7.94025 2.26314C7.85198 2.28318 6.44596 3.2125 3.72219 5.05112C3.3231 5.32517 2.96161 5.45869 2.63773 5.45169C2.28068 5.44398 1.59386 5.24981 1.08327 5.08384C0.457021 4.88027 -0.0407103 4.77264 0.00263094 4.42692C0.0252057 4.24685 0.273185 4.06268 0.746568 3.87444Z" fill="white"/>
</svg>
