<svg width="111" height="25" viewBox="0 0 111 25" fill="none" xmlns="http://www.w3.org/2000/svg">
<foreignObject x="-7.2" y="-7.2" width="125.4" height="39.4"><div xmlns="http://www.w3.org/1999/xhtml" style="backdrop-filter:blur(3.6px);clip-path:url(#bgblur_0_3342_11665_clip_path);height:100%;width:100%"></div></foreignObject><g data-figma-bg-blur-radius="7.2">
<rect width="111" height="25" rx="8" fill="white" fill-opacity="0.8"/>
<path d="M10 18.48H24V4.48H10V18.48ZM35.5723 7.31818H36.8052V14.0597C36.8052 14.7557 36.6412 15.3771 36.313 15.924C35.9882 16.4676 35.5292 16.8968 34.9359 17.2116C34.3426 17.5232 33.6466 17.679 32.8478 17.679C32.0491 17.679 31.353 17.5232 30.7598 17.2116C30.1665 16.8968 29.7058 16.4676 29.3777 15.924C29.0529 15.3771 28.8905 14.7557 28.8905 14.0597V7.31818H30.1234V13.9602C30.1234 14.4574 30.2328 14.8999 30.4515 15.2876C30.6703 15.6721 30.9818 15.9754 31.3862 16.1974C31.7939 16.4162 32.2811 16.5256 32.8478 16.5256C33.4146 16.5256 33.9018 16.4162 34.3095 16.1974C34.7172 15.9754 35.0287 15.6721 35.2441 15.2876C35.4629 14.8999 35.5723 14.4574 35.5723 13.9602V7.31818ZM38.7496 17.5V16.6051L43.0848 11.0369V10.9574H38.8888V9.86364H44.5962V10.7983L40.3802 16.3267V16.4062H44.7354V17.5H38.7496ZM46.5616 17.5V7.31818H47.7349V11.0767H47.8344C47.9205 10.9441 48.0398 10.7751 48.1923 10.5696C48.3481 10.3608 48.5701 10.1752 48.8585 10.0128C49.1502 9.84706 49.5446 9.7642 50.0417 9.7642C50.6847 9.7642 51.2515 9.92495 51.742 10.2464C52.2326 10.5679 52.6154 11.0237 52.8905 11.6136C53.1656 12.2036 53.3031 12.8996 53.3031 13.7017C53.3031 14.5104 53.1656 15.2114 52.8905 15.8047C52.6154 16.3946 52.2342 16.852 51.747 17.1768C51.2598 17.4983 50.698 17.6591 50.0616 17.6591C49.5711 17.6591 49.1783 17.5779 48.8834 17.4155C48.5884 17.2498 48.3613 17.0625 48.2023 16.8537C48.0432 16.6416 47.9205 16.4659 47.8344 16.3267H47.6951V17.5H46.5616ZM47.715 13.6818C47.715 14.2585 47.7996 14.7673 47.9686 15.2081C48.1376 15.6456 48.3845 15.9886 48.7094 16.2372C49.0342 16.4825 49.4319 16.6051 49.9025 16.6051C50.3931 16.6051 50.8024 16.4759 51.1305 16.2173C51.462 15.9555 51.7105 15.6042 51.8763 15.1634C52.0453 14.7192 52.1298 14.2254 52.1298 13.6818C52.1298 13.1449 52.0469 12.661 51.8812 12.2301C51.7188 11.7959 51.4719 11.4529 51.1405 11.201C50.8123 10.9458 50.3997 10.8182 49.9025 10.8182C49.4253 10.8182 49.0242 10.9392 48.6994 11.1811C48.3746 11.4197 48.1293 11.7545 47.9636 12.1854C47.7979 12.6129 47.715 13.1117 47.715 13.6818ZM58.1596 17.6591C57.4238 17.6591 56.789 17.4967 56.2554 17.1719C55.7251 16.8438 55.3158 16.3864 55.0274 15.7997C54.7424 15.2098 54.5999 14.5237 54.5999 13.7415C54.5999 12.9593 54.7424 12.2699 55.0274 11.6733C55.3158 11.0734 55.7168 10.6061 56.2306 10.2713C56.7476 9.93324 57.3508 9.7642 58.0402 9.7642C58.438 9.7642 58.8307 9.83049 59.2185 9.96307C59.6063 10.0956 59.9593 10.3111 60.2774 10.6094C60.5956 10.9044 60.8492 11.2955 61.0381 11.7827C61.227 12.2699 61.3215 12.8698 61.3215 13.5824V14.0795H55.4351V13.0653H60.1283C60.1283 12.6345 60.0421 12.25 59.8698 11.9119C59.7007 11.5739 59.4588 11.3071 59.1439 11.1115C58.8324 10.916 58.4645 10.8182 58.0402 10.8182C57.5729 10.8182 57.1685 10.9342 56.8272 11.1662C56.4891 11.3949 56.2289 11.6932 56.0466 12.0611C55.8643 12.429 55.7732 12.8234 55.7732 13.2443V13.9205C55.7732 14.4972 55.8726 14.986 56.0715 15.3871C56.2737 15.7848 56.5537 16.0881 56.9117 16.2969C57.2696 16.5024 57.6856 16.6051 58.1596 16.6051C58.4678 16.6051 58.7462 16.562 58.9948 16.4759C59.2467 16.3864 59.4638 16.2538 59.6461 16.0781C59.8283 15.8991 59.9692 15.6771 60.0686 15.4119L61.2022 15.7301C61.0828 16.1146 60.8823 16.4527 60.6006 16.7443C60.3189 17.0327 59.9709 17.258 59.5566 17.4205C59.1423 17.5795 58.6766 17.6591 58.1596 17.6591ZM64.06 14.7159L64.0401 13.2642H64.2788L67.6197 9.86364H69.0714L65.5117 13.4631H65.4123L64.06 14.7159ZM62.9663 17.5V7.31818H64.1396V17.5H62.9663ZM67.8186 17.5L64.8356 13.7216L65.6708 12.9062L69.31 17.5H67.8186ZM70.4415 17.5V9.86364H71.6148V17.5H70.4415ZM71.0381 8.59091C70.8094 8.59091 70.6122 8.51302 70.4465 8.35724C70.2841 8.20147 70.2029 8.0142 70.2029 7.79545C70.2029 7.5767 70.2841 7.38944 70.4465 7.23366C70.6122 7.07789 70.8094 7 71.0381 7C71.2668 7 71.4624 7.07789 71.6248 7.23366C71.7905 7.38944 71.8733 7.5767 71.8733 7.79545C71.8733 8.0142 71.7905 8.20147 71.6248 8.35724C71.4624 8.51302 71.2668 8.59091 71.0381 8.59091ZM79.0329 11.5739L77.9789 11.8722C77.9126 11.6965 77.8148 11.5258 77.6856 11.3601C77.5596 11.1911 77.3873 11.0518 77.1685 10.9425C76.9498 10.8331 76.6697 10.7784 76.3283 10.7784C75.861 10.7784 75.4716 10.8861 75.16 11.1016C74.8518 11.3137 74.6977 11.5838 74.6977 11.9119C74.6977 12.2036 74.8037 12.4339 75.0158 12.603C75.228 12.772 75.5594 12.9129 76.0102 13.0256L77.1437 13.304C77.8264 13.4697 78.3352 13.7232 78.67 14.0646C79.0047 14.4027 79.1721 14.8385 79.1721 15.3722C79.1721 15.8097 79.0461 16.2008 78.7942 16.5455C78.5457 16.8902 78.1977 17.1619 77.7502 17.3608C77.3028 17.5597 76.7824 17.6591 76.1891 17.6591C75.4102 17.6591 74.7656 17.4901 74.2552 17.152C73.7448 16.8139 73.4216 16.3201 73.2857 15.6705L74.3994 15.392C74.5054 15.803 74.7059 16.1113 75.0009 16.3168C75.2992 16.5223 75.6887 16.625 76.1692 16.625C76.7161 16.625 77.1503 16.509 77.4718 16.277C77.7966 16.0417 77.959 15.7599 77.959 15.4318C77.959 15.1667 77.8662 14.9446 77.6806 14.7656C77.495 14.5833 77.21 14.4474 76.8255 14.358L75.5528 14.0597C74.8534 13.8939 74.3397 13.6371 74.0116 13.2891C73.6868 12.9377 73.5244 12.4986 73.5244 11.9716C73.5244 11.5407 73.6453 11.1596 73.8873 10.8281C74.1325 10.4967 74.4656 10.2365 74.8866 10.0476C75.3108 9.85866 75.7914 9.7642 76.3283 9.7642C77.084 9.7642 77.6773 9.92992 78.1082 10.2614C78.5423 10.5928 78.8506 11.0303 79.0329 11.5739ZM84.1193 9.86364V10.858H80.1619V9.86364H84.1193ZM81.3153 8.03409H82.4886V15.3125C82.4886 15.6439 82.5366 15.8925 82.6328 16.0582C82.7322 16.2206 82.8581 16.33 83.0106 16.3864C83.1664 16.4394 83.3304 16.4659 83.5028 16.4659C83.632 16.4659 83.7381 16.4593 83.821 16.446C83.9038 16.4295 83.9701 16.4162 84.0198 16.4062L84.2585 17.4602C84.1789 17.4901 84.0679 17.5199 83.9254 17.5497C83.7828 17.5829 83.6022 17.5994 83.3835 17.5994C83.052 17.5994 82.7272 17.5282 82.409 17.3857C82.0942 17.2431 81.8323 17.026 81.6235 16.7344C81.418 16.4427 81.3153 16.0748 81.3153 15.6307V8.03409ZM87.9913 17.679C87.5074 17.679 87.0683 17.5878 86.6739 17.4055C86.2794 17.2199 85.9662 16.9531 85.7342 16.6051C85.5022 16.2538 85.3862 15.8295 85.3862 15.3324C85.3862 14.8949 85.4724 14.5402 85.6447 14.2685C85.8171 13.9934 86.0474 13.7779 86.3358 13.6222C86.6241 13.4664 86.9423 13.3504 87.2903 13.2741C87.6417 13.1946 87.9946 13.1316 88.3493 13.0852C88.8133 13.0256 89.1895 12.9808 89.4778 12.951C89.7695 12.9179 89.9816 12.8632 90.1142 12.7869C90.2501 12.7107 90.318 12.5781 90.318 12.3892V12.3494C90.318 11.8589 90.1838 11.4777 89.9153 11.206C89.6502 10.9342 89.2475 10.7983 88.7072 10.7983C88.1471 10.7983 87.708 10.9209 87.3898 11.1662C87.0716 11.4115 86.8479 11.6733 86.7186 11.9517L85.605 11.554C85.8038 11.09 86.069 10.7287 86.4004 10.4702C86.7352 10.2083 87.0998 10.026 87.4942 9.9233C87.8919 9.81723 88.283 9.7642 88.6675 9.7642C88.9127 9.7642 89.1945 9.79403 89.5126 9.85369C89.8341 9.91004 90.144 10.0277 90.4423 10.2067C90.7439 10.3857 90.9942 10.6558 91.193 11.017C91.3919 11.3783 91.4913 11.8622 91.4913 12.4688V17.5H90.318V16.4659H90.2584C90.1788 16.6316 90.0463 16.8089 89.8607 16.9979C89.675 17.1868 89.4281 17.3475 89.1199 17.4801C88.8116 17.6127 88.4355 17.679 87.9913 17.679ZM88.1703 16.625C88.6343 16.625 89.0254 16.5339 89.3436 16.3516C89.6651 16.1693 89.9071 15.9339 90.0695 15.6456C90.2352 15.3572 90.318 15.054 90.318 14.7358V13.6619C90.2683 13.7216 90.1589 13.7763 89.9899 13.826C89.8242 13.8724 89.632 13.9138 89.4132 13.9503C89.1978 13.9834 88.9873 14.0133 88.7818 14.0398C88.5796 14.063 88.4156 14.0829 88.2896 14.0994C87.9847 14.1392 87.6997 14.2038 87.4345 14.2933C87.1727 14.3795 86.9606 14.5104 86.7982 14.6861C86.6391 14.8584 86.5595 15.0937 86.5595 15.392C86.5595 15.7997 86.7103 16.108 87.0119 16.3168C87.3169 16.5223 87.703 16.625 88.1703 16.625ZM94.6661 12.9062V17.5H93.4928V9.86364H94.6264V11.0568H94.7258C94.9048 10.669 95.1766 10.3575 95.5411 10.1222C95.9057 9.88352 96.3764 9.7642 96.9531 9.7642C97.4701 9.7642 97.9225 9.87027 98.3103 10.0824C98.6981 10.2912 98.9997 10.6094 99.2151 11.0369C99.4306 11.4612 99.5383 11.9981 99.5383 12.6477V17.5H98.365V12.7273C98.365 12.1274 98.2092 11.66 97.8977 11.3253C97.5861 10.9872 97.1586 10.8182 96.615 10.8182C96.2405 10.8182 95.9057 10.8994 95.6107 11.0618C95.3191 11.2242 95.0887 11.4612 94.9197 11.7727C94.7507 12.0843 94.6661 12.4621 94.6661 12.9062Z" fill="#737373"/>
</g>
<defs>
<clipPath id="bgblur_0_3342_11665_clip_path" transform="translate(7.2 7.2)"><rect width="111" height="25" rx="8"/>
</clipPath></defs>
</svg>
